<svg width="24" height="25" viewBox="0 0 24 25" fill="none" xmlns="http://www.w3.org/2000/svg">
<g clip-path="url(#clip0)">
<path d="M12 23.4136C18.2132 23.4136 23.25 18.3768 23.25 12.1636C23.25 5.95037 18.2132 0.913574 12 0.913574C5.7868 0.913574 0.75 5.95037 0.75 12.1636C0.75 18.3768 5.7868 23.4136 12 23.4136Z" fill="#EC407A"/>
<path d="M12 0.244629C5.3835 0.244629 0 5.62813 0 12.2446C0 18.8611 5.3835 24.2446 12 24.2446C18.6165 24.2446 24 18.8611 24 12.2446C24 5.62813 18.6165 0.244629 12 0.244629ZM22.4955 12.3346C20.005 11.6671 17.3936 11.586 14.8665 12.0976C14.5276 11.2525 14.1615 10.4185 13.7685 9.59713C16.036 8.53556 18.1117 7.10514 19.911 5.36413C21.5797 7.26788 22.4998 9.71309 22.5 12.2446C22.5 12.2746 22.4955 12.3031 22.4955 12.3346ZM18.8505 4.30513C17.172 5.93311 15.2346 7.27083 13.1175 8.26363C11.9915 6.11168 10.6816 4.06105 9.2025 2.13463C10.113 1.8785 11.0541 1.7473 12 1.74463C14.5175 1.74424 16.9504 2.65357 18.8505 4.30513ZM7.7205 2.66563C9.23643 4.59517 10.5744 6.6581 11.718 8.82913C8.53727 10.0506 5.10823 10.4845 1.7235 10.0936C2.06728 8.47062 2.78969 6.9518 3.83185 5.66097C4.87401 4.37013 6.20642 3.3438 7.7205 2.66563ZM1.5 12.2446C1.5 12.0196 1.5195 11.7991 1.5345 11.5786C2.4225 11.6836 3.3105 11.7526 4.1955 11.7526C7.0185 11.7526 9.792 11.2006 12.3915 10.1881C12.7515 10.9381 13.0905 11.6986 13.404 12.4696C9.64264 13.5954 6.39387 16.002 4.221 19.2721C2.47146 17.3496 1.50131 14.844 1.5 12.2446ZM5.3175 20.3371C7.3126 17.2046 10.3785 14.9042 13.944 13.8646C14.8965 16.4857 15.5761 19.1981 15.972 21.9586C14.2163 22.6818 12.2968 22.9129 10.4196 22.6272C8.54244 22.3416 6.77857 21.5498 5.3175 20.3371ZM17.379 21.2446C16.9707 18.6124 16.3138 16.0248 15.417 13.5166C17.7271 13.0871 20.1054 13.199 22.365 13.8436C22.1281 15.3676 21.5586 16.8207 20.6968 18.0998C19.8351 19.3789 18.7024 20.4526 17.379 21.2446Z" fill="#C2185B"/>
</g>
<defs>
<clipPath id="clip0">
<rect width="24" height="24" fill="white" transform="translate(0 0.244629)"/>
</clipPath>
</defs>
</svg>
