<svg width="24" height="24" viewBox="0 0 24 24" fill="none" xmlns="http://www.w3.org/2000/svg">
<path d="M24 4.647L16.9395 0L12 4.1565L19.119 8.586L24 4.647Z" fill="#1E88E5"/>
<path d="M7.0605 0L0 4.6455L4.8825 8.586L12 4.1565L7.0605 0Z" fill="#1E88E5"/>
<path d="M12 13.0169L7.0605 17.1734L0 12.5264L4.881 8.58594L12 13.0169L19.1175 8.58594L24 12.5264L16.9395 17.1734L12 13.0169Z" fill="#1E88E5"/>
<path d="M17.2965 18.7336C17.162 18.8231 17.002 18.8664 16.8407 18.8569C16.6794 18.8474 16.5256 18.7857 16.4025 18.6811L12 14.9761L7.5975 18.6811C7.47361 18.7847 7.31967 18.8458 7.15842 18.8552C6.99717 18.8647 6.83715 18.822 6.702 18.7336L4.5 17.2846V19.5001L12.015 24.0001L19.5 19.5001V17.2831L17.2965 18.7336Z" fill="#1E88E5"/>
</svg>
