<svg width="18" height="18" viewBox="0 0 18 18" fill="none" xmlns="http://www.w3.org/2000/svg">
<path d="M7.5 9.74994C8.15172 10.6212 9.14972 11.1665 10.235 11.2442C11.3203 11.3219 12.3858 10.9244 13.155 10.1549L15.405 7.90494C16.8261 6.43352 16.8058 4.09463 15.3593 2.64812C13.9128 1.20162 11.5739 1.1813 10.1025 2.60244L8.8125 3.88494" stroke="#999999" stroke-width="1.22693" stroke-linecap="round" stroke-linejoin="round"/>
<path d="M10.5001 8.24997C9.84843 7.3787 8.85043 6.83344 7.76516 6.75572C6.6799 6.67799 5.61438 7.07546 4.84515 7.84497L2.59515 10.095C1.174 11.5664 1.19433 13.9053 2.64083 15.3518C4.08733 16.7983 6.42623 16.8186 7.89765 15.3975L9.18015 14.115" stroke="#999999" stroke-width="1.22693" stroke-linecap="round" stroke-linejoin="round"/>
</svg>
