<svg width="16" height="16" viewBox="0 0 16 16" fill="none" xmlns="http://www.w3.org/2000/svg">
<path fill-rule="evenodd" clip-rule="evenodd" d="M11.354 1.64601C11.4006 1.69245 11.4375 1.74763 11.4627 1.80838C11.4879 1.86912 11.5009 1.93424 11.5009 2.00001C11.5009 2.06578 11.4879 2.1309 11.4627 2.19164C11.4375 2.25239 11.4006 2.30756 11.354 2.35401L5.70699 8.00001L11.354 13.646C11.4479 13.7399 11.5006 13.8672 11.5006 14C11.5006 14.1328 11.4479 14.2601 11.354 14.354C11.2601 14.4479 11.1328 14.5006 11 14.5006C10.8672 14.5006 10.7399 14.4479 10.646 14.354L4.64599 8.35401C4.59943 8.30756 4.56249 8.25239 4.53728 8.19164C4.51207 8.1309 4.4991 8.06578 4.4991 8.00001C4.4991 7.93424 4.51207 7.86912 4.53728 7.80838C4.56249 7.74763 4.59943 7.69245 4.64599 7.64601L10.646 1.64601C10.6924 1.59945 10.7476 1.5625 10.8084 1.5373C10.8691 1.51209 10.9342 1.49911 11 1.49911C11.0658 1.49911 11.1309 1.51209 11.1916 1.5373C11.2524 1.5625 11.3075 1.59945 11.354 1.64601V1.64601Z" fill="#555555"/>
</svg>
