<svg width="249" height="250" viewBox="0 0 249 250" fill="none" xmlns="http://www.w3.org/2000/svg">
<rect width="248.94" height="249.11" rx="8" fill="white"/>
<g clip-path="url(#clip0)">
<path d="M71.3048 164.773L76.8833 174.322C78.0426 176.333 79.7037 177.909 81.6513 179.053C87.1893 171.967 91.0416 166.531 93.2099 162.744C95.4099 158.902 98.1089 152.894 101.307 144.722C92.5978 143.61 85.9992 143.063 81.5114 143.081C77.2037 143.098 70.6096 143.696 61.7281 144.877C61.7369 147.107 62.3213 149.336 63.4805 151.347L71.3048 164.773Z" fill="#0066DA"/>
<path d="M167.71 178.717C169.649 177.558 171.297 175.969 172.44 173.949L174.728 169.983L185.664 150.87C186.786 148.894 187.373 146.659 187.365 144.387C178.423 143.275 171.837 142.728 167.606 142.745C163.058 142.763 156.475 143.361 147.859 144.541C151.082 152.732 153.792 158.719 155.989 162.499C158.204 166.314 162.111 171.719 167.71 178.717Z" fill="#EA4335"/>
<path d="M124.388 104.34C130.797 96.5385 135.212 90.5242 137.631 86.2982C139.58 82.8952 141.718 77.4655 144.044 70.0094C142.097 68.8656 139.864 68.2986 137.561 68.3075L110.935 68.4114C108.632 68.4204 106.405 69.077 104.465 70.1638C107.496 78.693 110.063 84.7616 112.165 88.3692C114.49 92.3562 118.564 97.6798 124.388 104.34Z" fill="#00832D"/>
<path d="M147.786 144.54L101.303 144.722L81.6498 179.049C83.5967 180.193 85.8294 180.76 88.132 180.751L161.237 180.466C163.54 180.457 165.768 179.8 167.707 178.713L147.786 144.54L147.786 144.54Z" fill="#2684FC"/>
<path d="M124.39 104.342L104.47 70.1694C102.531 71.3282 100.882 72.9173 99.7391 74.9368L63.4334 138.399C62.311 140.375 61.7244 142.609 61.7317 144.882L101.306 144.727L124.391 104.342L124.39 104.342Z" fill="#00AC47"/>
<path d="M167.208 106.328L148.808 74.7397C147.649 72.7292 145.988 71.153 144.04 70.0093L124.387 104.337L147.785 144.541L187.288 144.386C187.279 142.156 186.695 139.928 185.536 137.917L167.208 106.328Z" fill="#FFBA00"/>
</g>
<defs>
<clipPath id="clip0">
<rect width="125.632" height="112.382" fill="white" transform="translate(61.4353 68.6097) rotate(-0.223572)"/>
</clipPath>
</defs>
</svg>
