<svg width="16" height="16" viewBox="0 0 16 16" fill="none" xmlns="http://www.w3.org/2000/svg">
<g clip-path="url(#clip0)">
<path d="M11.742 10.344C12.7103 9.0227 13.144 7.3845 12.9563 5.75716C12.7686 4.12982 11.9734 2.63335 10.7298 1.56714C9.48613 0.50093 7.88576 -0.0563875 6.24885 0.00668566C4.61194 0.0697588 3.0592 0.748571 1.90128 1.90732C0.743364 3.06606 0.0656633 4.61929 0.00376152 6.25624C-0.0581403 7.8932 0.500322 9.49317 1.56742 10.7361C2.63452 11.9789 4.13156 12.7731 5.75903 12.9596C7.38651 13.1461 9.02439 12.7112 10.345 11.742H10.344C10.374 11.782 10.406 11.82 10.442 11.857L14.292 15.707C14.4795 15.8946 14.7339 16.0001 14.9992 16.0002C15.2644 16.0003 15.5189 15.895 15.7065 15.7075C15.8942 15.52 15.9996 15.2656 15.9997 15.0004C15.9998 14.7351 15.8945 14.4806 15.707 14.293L11.857 10.443C11.8213 10.4068 11.7828 10.3734 11.742 10.343V10.344ZM12 6.50001C12 7.22228 11.8578 7.93748 11.5814 8.60477C11.3049 9.27206 10.8998 9.87837 10.3891 10.3891C9.87838 10.8998 9.27206 11.3049 8.60477 11.5813C7.93748 11.8577 7.22228 12 6.50001 12C5.77774 12 5.06254 11.8577 4.39525 11.5813C3.72796 11.3049 3.12165 10.8998 2.61093 10.3891C2.1002 9.87837 1.69508 9.27206 1.41868 8.60477C1.14227 7.93748 1.00001 7.22228 1.00001 6.50001C1.00001 5.04132 1.57948 3.64237 2.61093 2.61092C3.64238 1.57947 5.04132 1.00001 6.50001 1.00001C7.9587 1.00001 9.35765 1.57947 10.3891 2.61092C11.4206 3.64237 12 5.04132 12 6.50001Z" fill="#CACACA"/>
</g>
<defs>
<clipPath id="clip0">
<rect width="16" height="16" fill="white"/>
</clipPath>
</defs>
</svg>
