<svg width="20" height="14" viewBox="0 0 20 14" fill="none" xmlns="http://www.w3.org/2000/svg">
<path d="M7.99 8.4525L6.1795 3.718C6.04917 3.395 5.91883 2.987 5.7885 2.494C5.72617 2.73767 5.661 2.96433 5.593 3.174C5.53067 3.38367 5.46833 3.57067 5.406 3.735L3.604 8.4525H7.99ZM11.5685 13H10.1745C10.0158 13 9.8855 12.9603 9.7835 12.881C9.6815 12.8017 9.60783 12.6997 9.5625 12.575L8.483 9.7445H3.1025L2.023 12.575C1.98333 12.6827 1.90967 12.7818 1.802 12.8725C1.69433 12.9575 1.564 13 1.411 13H0.017L4.879 0.793999H6.7065L11.5685 13ZM17.3934 9.1665C16.7191 9.18917 16.1467 9.243 15.6764 9.328C15.2061 9.40733 14.8236 9.515 14.5289 9.651C14.2342 9.787 14.0217 9.9485 13.8914 10.1355C13.7611 10.3168 13.6959 10.5208 13.6959 10.7475C13.6959 10.9628 13.7299 11.1498 13.7979 11.3085C13.8716 11.4615 13.9679 11.589 14.0869 11.691C14.2116 11.7873 14.3561 11.8582 14.5204 11.9035C14.6847 11.9488 14.8632 11.9715 15.0559 11.9715C15.3109 11.9715 15.5432 11.946 15.7529 11.895C15.9682 11.844 16.1694 11.7732 16.3564 11.6825C16.5434 11.5862 16.7219 11.47 16.8919 11.334C17.0619 11.198 17.2291 11.0422 17.3934 10.8665V9.1665ZM12.5314 5.571C13.0131 5.112 13.5344 4.76917 14.0954 4.5425C14.6621 4.31583 15.2826 4.2025 15.9569 4.2025C16.4499 4.2025 16.8862 4.28467 17.2659 4.449C17.6456 4.60767 17.9657 4.8315 18.2264 5.1205C18.4871 5.4095 18.6826 5.75517 18.8129 6.1575C18.9489 6.55983 19.0169 7.00467 19.0169 7.492V13H18.2774C18.1131 13 17.9884 12.9745 17.9034 12.9235C17.8184 12.8668 17.7504 12.7648 17.6994 12.6175L17.5209 11.861C17.2999 12.065 17.0817 12.2463 16.8664 12.405C16.6511 12.558 16.4244 12.6912 16.1864 12.8045C15.9541 12.9122 15.7047 12.9943 15.4384 13.051C15.1721 13.1077 14.8774 13.136 14.5544 13.136C14.2144 13.136 13.8942 13.0907 13.5939 13C13.2992 12.9037 13.0414 12.7592 12.8204 12.5665C12.5994 12.3738 12.4237 12.133 12.2934 11.844C12.1687 11.555 12.1064 11.2178 12.1064 10.8325C12.1064 10.4925 12.1971 10.1667 12.3784 9.855C12.5654 9.53767 12.8657 9.25433 13.2794 9.005C13.6987 8.75567 14.2427 8.55167 14.9114 8.393C15.5857 8.23433 16.4131 8.14367 17.3934 8.121V7.492C17.3934 6.84033 17.2546 6.353 16.9769 6.03C16.6992 5.707 16.2912 5.5455 15.7529 5.5455C15.3902 5.5455 15.0842 5.59083 14.8349 5.6815C14.5912 5.77217 14.3787 5.87417 14.1974 5.9875C14.0217 6.09517 13.8659 6.19433 13.7299 6.285C13.5996 6.37567 13.4636 6.421 13.3219 6.421C13.2086 6.421 13.1094 6.38983 13.0244 6.3275C12.9451 6.26517 12.8799 6.1915 12.8289 6.1065L12.5314 5.571Z" fill="#999999"/>
</svg>
