<svg width="18" height="18" viewBox="0 0 18 18" fill="none" xmlns="http://www.w3.org/2000/svg">
<path d="M9 12C10.6569 12 12 10.6569 12 9C12 7.34315 10.6569 6 9 6C7.34315 6 6 7.34315 6 9C6 10.6569 7.34315 12 9 12Z" stroke="#999999" stroke-width="1.2" stroke-linecap="round" stroke-linejoin="round"/>
<path d="M12 5.99999V9.74999C12 10.3467 12.2371 10.919 12.659 11.341C13.081 11.7629 13.6533 12 14.25 12C14.8467 12 15.419 11.7629 15.841 11.341C16.263 10.919 16.5 10.3467 16.5 9.74999V8.99999C16.4999 7.30726 15.9272 5.66435 14.875 4.33839C13.8227 3.01243 12.3529 2.08141 10.7045 1.69672C9.05605 1.31202 7.32596 1.49627 5.79552 2.21952C4.26508 2.94276 3.02431 4.16246 2.27495 5.68028C1.5256 7.19811 1.31173 8.92479 1.66813 10.5796C2.02453 12.2344 2.93024 13.7199 4.23798 14.7947C5.54572 15.8695 7.17858 16.4702 8.87106 16.4994C10.5635 16.5285 12.2161 15.9842 13.56 14.955" stroke="#999999" stroke-width="1.2" stroke-linecap="round" stroke-linejoin="round"/>
</svg>
