<svg width="26" height="24" viewBox="0 0 26 24" fill="none" xmlns="http://www.w3.org/2000/svg">
<path d="M20.3185 12.7057C17.1994 12.7057 14.6712 15.2338 14.6712 18.3525C14.6712 21.4714 17.1994 24 20.3185 24C23.4371 24 25.9652 21.4714 25.9652 18.3525C25.9652 15.2338 23.4371 12.7057 20.3185 12.7057ZM5.647 12.706C2.52838 12.7063 0 15.2338 0 18.3527C0 21.4714 2.52838 23.9997 5.647 23.9997C8.76588 23.9997 11.2943 21.4714 11.2943 18.3527C11.2943 15.2338 8.76588 12.706 5.64673 12.706H5.647ZM18.6296 5.647C18.6296 8.76561 16.1015 11.2945 12.9829 11.2945C9.86373 11.2945 7.33562 8.76561 7.33562 5.647C7.33562 2.52838 9.86373 0 12.9829 0C16.1015 0 18.6293 2.52838 18.6293 5.647H18.6296Z" fill="url(#paint0_radial)"/>
<defs>
<radialGradient id="paint0_radial" cx="0" cy="0" r="1" gradientUnits="userSpaceOnUse" gradientTransform="translate(12.9826 13.1165) scale(17.2053 15.9031)">
<stop stop-color="#FFB900"/>
<stop offset="0.6" stop-color="#F95D8F"/>
<stop offset="0.9991" stop-color="#F95353"/>
</radialGradient>
</defs>
</svg>
