<svg width="22" height="32" viewBox="0 0 22 32" fill="none" xmlns="http://www.w3.org/2000/svg">
<g clip-path="url(#clip0)">
<path d="M6.05102 31.5433C8.89302 31.5323 11.1906 29.2167 11.1795 26.3747L11.1594 21.2262L6.01084 21.2463C3.16885 21.2574 0.871305 23.5729 0.882395 26.4149C0.893484 29.2569 3.20903 31.5544 6.05102 31.5433Z" fill="#0ACF83"/>
<path d="M0.842356 16.1179C0.831266 13.2759 3.12881 10.9604 5.9708 10.9493L11.1193 10.9292L11.1595 21.2263L6.01098 21.2463C3.16899 21.2574 0.853445 18.9599 0.842356 16.1179Z" fill="#A259FF"/>
<path d="M0.802317 5.82078C0.791227 2.97879 3.08877 0.663241 5.93076 0.652151L11.0793 0.632061L11.1195 10.9291L5.97094 10.9492C3.12895 10.9603 0.813406 8.66277 0.802317 5.82078Z" fill="#F24E1E"/>
<path d="M11.0791 0.63208L16.2276 0.61199C19.0696 0.6009 21.3852 2.89844 21.3963 5.74044C21.4074 8.58243 19.1098 10.898 16.2678 10.9091L11.1193 10.9292L11.0791 0.63208Z" fill="#FF7262"/>
<path d="M21.4363 16.0374C21.4474 18.8794 19.1499 21.195 16.3079 21.2061C13.4659 21.2171 11.1503 18.9196 11.1392 16.0776C11.1281 13.2356 13.4257 10.9201 16.2677 10.909C19.1097 10.8979 21.4252 13.1954 21.4363 16.0374Z" fill="#1ABCFE"/>
</g>
<defs>
<clipPath id="clip0">
<rect width="20.5943" height="30.8915" fill="white" transform="translate(0.782227 0.672241) rotate(-0.223572)"/>
</clipPath>
</defs>
</svg>
