<svg width="35" height="27" viewBox="0 0 35 27" fill="none" xmlns="http://www.w3.org/2000/svg">
<g clip-path="url(#clip0)">
<path d="M8.13383 26.6498L8.08236 13.457L4.05406 9.72962L0.446777 7.6665L0.511883 24.3514C0.51691 25.6396 1.54484 26.6756 2.80488 26.6706L8.13383 26.6498Z" fill="#4285F4"/>
<path d="M26.405 26.5783L31.734 26.5575C32.9978 26.5526 34.0138 25.5048 34.0088 24.2205L33.9437 7.53572L29.8763 9.93076L26.3535 13.3855L26.405 26.5783Z" fill="#34A853"/>
<path d="M8.08246 13.4569L7.5162 8.30427L8.0431 3.36847L17.2057 10.3172L26.3139 3.29718L26.9431 7.96209L26.3532 13.3856L17.2451 20.4057L8.08246 13.4569Z" fill="#EA4335"/>
<path d="M26.3139 3.29689L26.3533 13.3846L33.9428 7.53507L33.9307 4.43112C33.9195 1.5523 30.6893 -0.0762541 28.4391 1.65904L26.3139 3.29689Z" fill="#FBBC04"/>
<path d="M0.446906 7.66591L3.95838 10.329L8.08188 13.456L8.04252 3.36832L5.90459 1.74711C3.63702 0.0293078 0.423561 1.68314 0.434793 4.56183L0.446905 7.66578L0.446906 7.66591Z" fill="#C5221F"/>
</g>
<defs>
<clipPath id="clip0">
<rect width="33.4968" height="25.7429" fill="white" transform="translate(0.42041 1.0625) rotate(-0.223572)"/>
</clipPath>
</defs>
</svg>
