<svg width="30" height="27" viewBox="0 0 30 27" fill="none" xmlns="http://www.w3.org/2000/svg">
<g clip-path="url(#clip0)">
<path d="M2.85363 23.0831L4.13133 25.2702C4.39686 25.7307 4.77733 26.0919 5.2234 26.3539C6.49186 24.7308 7.37418 23.4856 7.87082 22.6184C8.37471 21.7384 8.99291 20.3624 9.72541 18.4906C7.73062 18.2359 6.21927 18.1106 5.19137 18.1146C4.20471 18.1185 2.69439 18.2556 0.660167 18.526C0.66216 19.0369 0.796015 19.5473 1.06154 20.0079L2.85363 23.0831Z" fill="#0066DA"/>
<path d="M24.9365 26.2768C25.3806 26.0113 25.7583 25.6472 26.0201 25.1847L26.544 24.2762L29.0488 19.8985C29.3059 19.4459 29.4402 18.934 29.4385 18.4135C27.3904 18.159 25.8819 18.0337 24.9127 18.0375C23.871 18.0416 22.3634 18.1787 20.3898 18.4488C21.1281 20.3251 21.7489 21.6963 22.2519 22.5622C22.7593 23.4358 23.6541 24.6739 24.9365 26.2768Z" fill="#EA4335"/>
<path d="M15.0133 9.23957C16.4812 7.45262 17.4923 6.07508 18.0465 5.10716C18.4927 4.32773 18.9824 3.08408 19.5153 1.37632C19.0693 1.11434 18.5578 0.98447 18.0304 0.986528L11.932 1.01032C11.4045 1.01238 10.8943 1.16276 10.4501 1.4117C11.1441 3.36524 11.7321 4.7552 12.2137 5.58149C12.7461 6.4947 13.6793 7.71402 15.0133 9.23957Z" fill="#00832D"/>
<path d="M20.3733 18.4491L9.72569 18.4906L5.22379 26.3539C5.66975 26.6159 6.18119 26.7457 6.70863 26.7437L23.4546 26.6783C23.9821 26.6763 24.4925 26.5259 24.9365 26.2768L20.3734 18.4491L20.3733 18.4491Z" fill="#2684FC"/>
<path d="M15.0132 9.2395L10.4501 1.41173C10.006 1.67719 9.62832 2.04121 9.3664 2.5038L1.04999 17.0408C0.79288 17.4934 0.658508 18.0053 0.660197 18.5258L9.72545 18.4904L15.0133 9.2395L15.0132 9.2395Z" fill="#00AC47"/>
<path d="M24.8222 9.69584L20.6073 2.45994C20.3419 1.9994 19.9613 1.63834 19.5152 1.37636L15.0133 9.23961L20.373 18.449L29.4219 18.4137C29.4199 17.9026 29.286 17.3924 29.0205 16.9318L24.8222 9.69584Z" fill="#FFBA00"/>
</g>
<defs>
<clipPath id="clip0">
<rect width="28.7781" height="25.7429" fill="white" transform="translate(0.592285 1.05469) rotate(-0.223572)"/>
</clipPath>
</defs>
</svg>
