<svg width="20" height="25" viewBox="0 0 20 25" fill="none" xmlns="http://www.w3.org/2000/svg">
<g clip-path="url(#clip0)">
<path d="M9.951 0.244629C4.455 0.244629 0 4.69963 0 10.1956C0 15.6916 4.455 20.1466 9.951 20.1466H10.537V24.2446C16.274 21.5516 19.903 15.4636 19.903 10.1956V10.1876C19.903 4.69663 15.451 0.244629 9.96 0.244629H9.952H9.951ZM9.366 10.7816L8.196 13.1246H6.436L7.606 10.7826H5.846V7.26863H9.358V10.7806L9.366 10.7816ZM14.049 10.7816L12.88 13.1246H11.12L12.29 10.7826H10.53V7.26863H14.042V10.7806L14.049 10.7816Z" fill="#5EB547"/>
</g>
<defs>
<clipPath id="clip0">
<rect width="20" height="24" fill="white" transform="translate(0 0.244629)"/>
</clipPath>
</defs>
</svg>
