<svg width="24" height="24" viewBox="0 0 24 24" fill="none" xmlns="http://www.w3.org/2000/svg">
<path d="M22.9365 0H11.4099C11.4099 1.38 11.9581 2.70349 12.9339 3.6793C13.9097 4.65511 15.2332 5.20331 16.6132 5.20331H18.7365V7.25344C18.7384 10.1245 21.0654 12.4516 23.9364 12.4535V0.999938C23.9364 0.447844 23.4889 0 22.9365 0Z" fill="#2684FF"/>
<path d="M17.2335 5.74316H5.70691C5.70869 8.61426 8.03566 10.9413 10.9068 10.9432H13.0302V12.9999C13.0338 15.871 15.3624 18.1964 18.2335 18.1964V6.74329C18.2335 6.19101 17.7857 5.74326 17.2335 5.74326V5.74316Z" fill="url(#paint0_linear)"/>
<path d="M11.5267 11.4834H0C0 14.3571 2.32969 16.6867 5.20331 16.6867H7.33331V18.7367C7.33519 21.6052 9.65812 23.9312 12.5267 23.9367V12.4834C12.5267 11.9311 12.0789 11.4834 11.5267 11.4834Z" fill="url(#paint1_linear)"/>
<defs>
<linearGradient id="paint0_linear" x1="17.9869" y1="5.76321" x2="13.1134" y2="10.8485" gradientUnits="userSpaceOnUse">
<stop offset="0.18" stop-color="#0052CC"/>
<stop offset="1" stop-color="#2684FF"/>
</linearGradient>
<linearGradient id="paint1_linear" x1="12.61" y1="11.5401" x2="6.97263" y2="17.0865" gradientUnits="userSpaceOnUse">
<stop offset="0.18" stop-color="#0052CC"/>
<stop offset="1" stop-color="#2684FF"/>
</linearGradient>
</defs>
</svg>
