<svg width="23" height="23" viewBox="0 0 23 23" fill="none" xmlns="http://www.w3.org/2000/svg">
<path d="M0 7.1875H5.14337V23H0V7.1875Z" fill="#1976D2"/>
<path d="M19.1533 7.37294C19.0986 7.35569 19.0469 7.337 18.9894 7.32119C18.9203 7.30556 18.8508 7.29214 18.7809 7.28094C18.4772 7.21884 18.168 7.18754 17.8581 7.1875C14.8594 7.1875 12.9576 9.36819 12.3309 10.2106V7.1875H7.1875V23H12.3309V14.375C12.3309 14.375 16.2179 8.96137 17.8581 12.9375V23H23V12.3294C22.9979 11.194 22.619 10.0914 21.9229 9.1944C21.2267 8.29742 20.2526 7.65679 19.1533 7.37294Z" fill="#1976D2"/>
<path d="M2.51562 5.03125C3.90497 5.03125 5.03125 3.90497 5.03125 2.51562C5.03125 1.12628 3.90497 0 2.51562 0C1.12628 0 0 1.12628 0 2.51562C0 3.90497 1.12628 5.03125 2.51562 5.03125Z" fill="#1976D2"/>
</svg>
