<svg width="19" height="25" viewBox="0 0 19 25" fill="none" xmlns="http://www.w3.org/2000/svg">
<path d="M9.81791 0.245117C3.40857 0.245117 0 4.45153 0 9.03816C0 11.1653 1.16055 13.8179 3.01831 14.6592C3.30041 14.7894 3.45388 14.734 3.51673 14.4661C3.57228 14.2625 3.81637 13.282 3.93476 12.8194C3.95581 12.7473 3.95769 12.6707 3.94022 12.5976C3.92275 12.5244 3.88656 12.4574 3.83537 12.4033C3.21856 11.6728 2.7289 10.342 2.7289 9.09355C2.7289 5.89458 5.21225 2.78842 9.43788 2.78842C13.092 2.78842 15.6484 5.21946 15.6484 8.69686C15.6484 12.6263 13.6182 15.3448 10.9799 15.3448C9.51973 15.3448 8.43226 14.1712 8.77721 12.7191C9.19378 10.9902 10.0108 9.13097 10.0108 7.88402C10.0108 6.7658 9.39403 5.84069 8.13409 5.84069C6.64759 5.84069 5.44173 7.34811 5.44173 9.37198C5.44173 10.6579 5.88607 11.5261 5.88607 11.5261L4.14232 18.7458C3.68044 20.6694 4.20517 23.7846 4.25048 24.0525C4.27825 24.2007 4.4405 24.2471 4.53112 24.1259C4.67582 23.9313 6.45319 21.3341 6.95161 19.4569C7.13286 18.7728 7.87684 15.999 7.87684 15.999C8.36649 16.9046 9.77991 17.6636 11.2854 17.6636C15.7639 17.6636 19 13.6323 19 8.6295C18.9839 3.83329 14.9761 0.245117 9.81791 0.245117Z" fill="#D32F2F"/>
</svg>
