<svg width="32" height="26" viewBox="0 0 32 26" fill="none" xmlns="http://www.w3.org/2000/svg">
<g clip-path="url(#clip0)">
<path d="M32 3.16582C30.8225 3.68545 29.5572 4.03663 28.2292 4.19463C29.5849 3.38601 30.6257 2.10554 31.1159 0.579879C29.8272 1.34095 28.4173 1.87718 26.947 2.16538C25.7494 0.895611 24.0432 0.102051 22.1549 0.102051C18.5291 0.102051 15.5895 3.02749 15.5895 6.63564C15.5895 7.1478 15.6476 7.6464 15.7595 8.12473C10.3032 7.85217 5.46575 5.25105 2.22762 1.29805C1.66262 2.26304 1.33888 3.38551 1.33888 4.58276C1.33888 6.84961 2.498 8.84937 4.2595 10.0211C3.21694 9.98862 2.19731 9.70838 1.28575 9.20379C1.28537 9.23116 1.28537 9.25853 1.28537 9.28602C1.28537 12.4517 3.54837 15.0925 6.55162 15.6927C5.58486 15.9544 4.57079 15.9927 3.58687 15.8047C4.42225 18.4005 6.84688 20.2894 9.71963 20.3422C7.47275 22.0946 4.64188 23.1392 1.56613 23.1392C1.03613 23.1392 0.513625 23.1082 0 23.0479C2.90538 24.9017 6.35625 25.9834 10.0638 25.9834C22.1396 25.9834 28.743 16.0274 28.743 7.39337C28.743 7.10998 28.7368 6.82821 28.724 6.54806C30.0093 5.62336 31.1186 4.47803 32 3.16582Z" fill="#55ACEE"/>
</g>
<defs>
<clipPath id="clip0">
<rect width="32" height="26" fill="white"/>
</clipPath>
</defs>
</svg>
