<svg width="18" height="20" viewBox="0 0 18 20" fill="none" xmlns="http://www.w3.org/2000/svg">
<path fill-rule="evenodd" clip-rule="evenodd" d="M9 1.63056C8.80109 1.63056 8.61032 1.71476 8.46967 1.86463C8.32902 2.0145 8.25 2.21777 8.25 2.42973V2.56877C8.24845 2.98179 8.1336 3.38531 7.91958 3.72966C7.70556 4.07401 7.40172 4.34417 7.04545 4.50687C6.98203 4.53583 6.91531 4.55526 6.84721 4.56475C6.52348 4.68554 6.17499 4.71532 5.83575 4.64978C5.445 4.57428 5.08444 4.37579 4.80055 4.07989L4.79464 4.07373L4.74967 4.02575C4.68002 3.95144 4.597 3.89218 4.50596 3.85196C4.41491 3.81175 4.31731 3.79105 4.21875 3.79105C4.12019 3.79105 4.02259 3.81175 3.93154 3.85196C3.8405 3.89218 3.75778 3.95113 3.68813 4.02543C3.61839 4.09965 3.56248 4.18842 3.52474 4.28544C3.487 4.38245 3.46757 4.48645 3.46757 4.59147C3.46757 4.69649 3.487 4.80049 3.52474 4.8975C3.56248 4.99452 3.6178 5.08266 3.68754 5.15688L3.73868 5.21138C4.01637 5.51387 4.20262 5.89811 4.27347 6.31447C4.34291 6.72255 4.29835 7.14318 4.14559 7.52423C4.00642 7.91307 3.76273 8.24979 3.44479 8.4921C3.12041 8.73932 2.73374 8.87683 2.33504 8.88677L2.3175 8.88699H2.25C2.05109 8.88699 1.86032 8.97119 1.71967 9.12106C1.57902 9.27093 1.5 9.4742 1.5 9.68615C1.5 9.89811 1.57902 10.1014 1.71967 10.2513C1.86032 10.4011 2.05109 10.4853 2.25 10.4853H2.38049C2.7681 10.487 3.14679 10.6094 3.46996 10.8374C3.79201 11.0647 4.0449 11.387 4.19776 11.7649C4.35681 12.151 4.40408 12.5789 4.33347 12.9939C4.26262 13.4103 4.07634 13.7945 3.79865 14.097L3.79286 14.1033L3.74783 14.1512C3.6781 14.2254 3.62248 14.3139 3.58474 14.4109C3.547 14.5079 3.52757 14.6119 3.52757 14.7169C3.52757 14.8219 3.547 14.9259 3.58474 15.0229C3.62248 15.12 3.6778 15.2081 3.74754 15.2823C3.81719 15.3566 3.90049 15.4162 3.99154 15.4564C4.08259 15.4966 4.18019 15.5173 4.27875 15.5173C4.37731 15.5173 4.47491 15.4966 4.56596 15.4564C4.65701 15.4162 4.73972 15.3572 4.80937 15.2829L4.86052 15.2284C5.14441 14.9326 5.505 14.7341 5.89575 14.6586C6.27872 14.5846 6.67347 14.6321 7.03108 14.7949C7.39599 14.9432 7.712 15.2028 7.93941 15.5416C8.17142 15.8873 8.30047 16.2993 8.30979 16.7241L8.31 16.7428V16.8147C8.31 17.0267 8.38902 17.2299 8.52967 17.3798C8.67032 17.5297 8.86109 17.6139 9.06 17.6139C9.25891 17.6139 9.44968 17.5297 9.59033 17.3798C9.73098 17.2299 9.81 17.0267 9.81 16.8147V16.6789L9.81001 16.6757C9.81155 16.2627 9.9264 15.8591 10.1404 15.5148C10.3537 15.1716 10.6562 14.9021 11.0109 14.7392C11.3733 14.5698 11.7748 14.5194 12.1642 14.5947C12.555 14.6702 12.9156 14.8687 13.1994 15.1645L13.2054 15.1707L13.2503 15.2187C13.32 15.293 13.403 15.3523 13.494 15.3925C13.5851 15.4327 13.6827 15.4534 13.7812 15.4534C13.8798 15.4534 13.9774 15.4327 14.0685 15.3925C14.1595 15.3523 14.2422 15.2933 14.3119 15.219C14.3816 15.1448 14.4375 15.056 14.4753 14.959C14.513 14.862 14.5324 14.758 14.5324 14.653C14.5324 14.548 14.513 14.444 14.4753 14.3469C14.4375 14.2499 14.3822 14.1618 14.3125 14.0876L14.2613 14.0331C13.9836 13.7306 13.7974 13.3463 13.7265 12.93C13.6559 12.515 13.7032 12.0871 13.8622 11.701C14.0151 11.3231 14.268 11.0007 14.59 10.7735C14.9132 10.5454 15.2919 10.423 15.6795 10.4214L15.6825 10.4214L15.75 10.4214C15.9489 10.4214 16.1397 10.3372 16.2803 10.1873C16.421 10.0374 16.5 9.83417 16.5 9.62222C16.5 9.41027 16.421 9.207 16.2803 9.05713C16.1397 8.90725 15.9489 8.82306 15.75 8.82306H15.6225L15.6195 8.82305C15.2319 8.8214 14.8532 8.69902 14.53 8.47097C14.2069 8.24293 13.9533 7.91916 13.8006 7.53954C13.7735 7.47196 13.7552 7.40087 13.7463 7.3283C13.633 6.98335 13.605 6.61202 13.6665 6.25054C13.7374 5.83418 13.9237 5.44998 14.2014 5.14748L14.2071 5.14118L14.2522 5.09326C14.3219 5.01904 14.3775 4.93059 14.4153 4.83357C14.453 4.73655 14.4724 4.63256 14.4724 4.52754C14.4724 4.42251 14.453 4.31852 14.4153 4.2215C14.3775 4.12449 14.3222 4.03635 14.2525 3.96213C14.1828 3.88782 14.0995 3.82825 14.0085 3.78803C13.9174 3.74781 13.8198 3.72711 13.7213 3.72711C13.6227 3.72711 13.5251 3.74781 13.434 3.78803C13.343 3.82825 13.2603 3.8872 13.1906 3.9615L13.1395 4.016C12.8556 4.31189 12.495 4.51035 12.1042 4.58584C11.7148 4.66109 11.3132 4.61071 10.9508 4.44124C10.5962 4.27836 10.2937 4.00888 10.0804 3.66573C9.8664 3.32137 9.75155 2.91785 9.75001 2.50484L9.75 2.50165V2.42973C9.75 2.21777 9.67098 2.0145 9.53033 1.86463C9.38968 1.71476 9.19891 1.63056 9 1.63056ZM7.40901 0.734438C7.83097 0.28482 8.40326 0.0322266 9 0.0322266C9.59674 0.0322266 10.169 0.28482 10.591 0.734438C11.0129 1.18406 11.25 1.79387 11.25 2.42973V2.49965C11.2506 2.60054 11.2787 2.69908 11.331 2.78321C11.3835 2.86767 11.4581 2.93394 11.5454 2.97385L11.5528 2.97722C11.642 3.01913 11.7408 3.03167 11.8366 3.01316C11.9314 2.99484 12.019 2.94701 12.0883 2.87575L12.1294 2.83193C12.3383 2.60902 12.5865 2.43219 12.8596 2.31153C13.1328 2.19088 13.4256 2.12878 13.7213 2.12878C14.0169 2.12878 14.3097 2.19088 14.5829 2.31153C14.856 2.43219 15.1042 2.60903 15.3131 2.83193C15.522 3.05447 15.6878 3.31866 15.8009 3.60944C15.9141 3.90049 15.9724 4.21247 15.9724 4.52754C15.9724 4.84261 15.9141 5.15458 15.8009 5.44564C15.6877 5.73655 15.5219 6.00085 15.3128 6.22345L15.2714 6.26757C15.2045 6.34139 15.1597 6.43468 15.1425 6.5357C15.1251 6.63783 15.1368 6.74316 15.1761 6.83811C15.1973 6.88929 15.2134 6.94256 15.2241 6.99701C15.2596 7.05273 15.3051 7.10084 15.3583 7.13837C15.4372 7.19409 15.5297 7.22409 15.6244 7.22472H15.75C16.3467 7.22472 16.919 7.47732 17.341 7.92693C17.7629 8.37655 18 8.98636 18 9.62222C18 10.2581 17.7629 10.8679 17.341 11.3175C16.919 11.7671 16.3467 12.0197 15.75 12.0197H15.6844C15.5897 12.0204 15.4972 12.0504 15.4183 12.1061C15.339 12.162 15.2768 12.2414 15.2394 12.3345L15.2362 12.3424C15.1969 12.4374 15.1851 12.5427 15.2025 12.6448C15.2197 12.7458 15.2645 12.8391 15.3314 12.9129L15.3725 12.9567C15.5816 13.1793 15.7477 13.444 15.8609 13.7349C15.9741 14.0259 16.0324 14.3379 16.0324 14.653C16.0324 14.968 15.9741 15.28 15.8609 15.5711C15.7477 15.8621 15.5817 16.1265 15.3725 16.3492C15.1636 16.5721 14.916 16.7483 14.6429 16.869C14.3697 16.9896 14.0769 17.0517 13.7812 17.0517C13.4856 17.0517 13.1928 16.9896 12.9196 16.869C12.6466 16.7484 12.3986 16.5717 12.1897 16.3489L12.1482 16.3048C12.079 16.2335 11.9914 16.1857 11.8966 16.1674C11.8008 16.1488 11.7019 16.1613 11.6128 16.2032L11.6055 16.2067C11.5181 16.2466 11.4435 16.3128 11.391 16.3973C11.3387 16.4814 11.3106 16.58 11.31 16.6809V16.8147C11.31 17.4506 11.0729 18.0604 10.651 18.51C10.229 18.9596 9.65674 19.2122 9.06 19.2122C8.46326 19.2122 7.89097 18.9596 7.46901 18.51C7.04705 18.0604 6.81 17.4506 6.81 16.8147V16.7543C6.80644 16.6526 6.77495 16.5543 6.71936 16.4714C6.66245 16.3867 6.58292 16.3221 6.49111 16.2861C6.47628 16.2803 6.46163 16.274 6.44718 16.2672C6.35806 16.2253 6.25921 16.2128 6.16337 16.2313C6.06856 16.2496 5.981 16.2974 5.91172 16.3687L5.87063 16.4125C5.66172 16.6353 5.41338 16.8123 5.14037 16.9329C4.86722 17.0536 4.57444 17.1157 4.27875 17.1157C3.98306 17.1157 3.69028 17.0536 3.41713 16.9329C3.14425 16.8124 2.89631 16.6358 2.68746 16.4131C2.47827 16.1905 2.31231 15.9261 2.19908 15.635C2.08585 15.344 2.02757 15.032 2.02757 14.7169C2.02757 14.4018 2.08585 14.0899 2.19908 13.7988C2.31231 13.5078 2.47827 13.2433 2.68746 13.0207L2.72858 12.9769C2.79546 12.903 2.84035 12.8098 2.85754 12.7087C2.87491 12.6066 2.86318 12.5013 2.82385 12.4063L2.82061 12.3985C2.78315 12.3054 2.721 12.2259 2.64174 12.17C2.56278 12.1143 2.47031 12.0843 2.37562 12.0837H2.25C1.65326 12.0837 1.08097 11.8311 0.65901 11.3814C0.237053 10.9318 0 10.322 0 9.68615C0 9.0503 0.237053 8.44049 0.65901 7.99087C1.08097 7.54125 1.65326 7.28866 2.25 7.28866H2.30673C2.40213 7.28487 2.49444 7.25131 2.57216 7.19207C2.65173 7.13143 2.71233 7.04669 2.7461 6.94887C2.75155 6.93306 2.75747 6.91745 2.76385 6.90205C2.80318 6.80709 2.81491 6.70176 2.79754 6.59963C2.78035 6.49862 2.73546 6.40532 2.66857 6.3315L2.62747 6.2877C2.41827 6.06504 2.25231 5.80062 2.13908 5.50957C2.02585 5.21852 1.96757 4.90654 1.96757 4.59147C1.96757 4.2764 2.02585 3.96442 2.13908 3.67337C2.25226 3.38246 2.41811 3.11815 2.62717 2.89555C2.83607 2.67279 3.08412 2.49606 3.35713 2.37547C3.63028 2.25482 3.92307 2.19271 4.21875 2.19271C4.51443 2.19271 4.80722 2.25482 5.08037 2.37547C5.35351 2.49612 5.60166 2.67296 5.81063 2.89587L5.85173 2.93967C5.92101 3.01094 6.00857 3.05877 6.10337 3.07709C6.19921 3.09561 6.29806 3.08311 6.38718 3.0412C6.43521 3.01861 6.48519 3.00152 6.5363 2.99012C6.58859 2.9523 6.63374 2.90382 6.66896 2.84714C6.72125 2.76301 6.74941 2.66448 6.75 2.56358V2.42973C6.75 1.79387 6.98705 1.18406 7.40901 0.734438ZM9 8.02389C8.17157 8.02389 7.5 8.73949 7.5 9.62222C7.5 10.505 8.17157 11.2206 9 11.2206C9.82843 11.2206 10.5 10.505 10.5 9.62222C10.5 8.73949 9.82843 8.02389 9 8.02389ZM6 9.62222C6 7.85675 7.34315 6.42556 9 6.42556C10.6569 6.42556 12 7.85675 12 9.62222C12 11.3877 10.6569 12.8189 9 12.8189C7.34315 12.8189 6 11.3877 6 9.62222Z" fill="#999999"/>
</svg>
