<svg width="200" height="173" viewBox="0 0 200 173" fill="none" xmlns="http://www.w3.org/2000/svg">
<path d="M155.04 158.386C120.61 176.761 64.7865 176.761 30.3563 158.386C-4.07381 140.01 -4.07867 110.208 30.3563 91.8321C64.7914 73.4564 120.61 73.4515 155.04 91.8321C189.47 110.213 189.47 140.005 155.04 158.386Z" fill="#EBEBEB"/>
<path d="M20.2292 112.792L25.2514 109.872C25.2514 109.872 26.4826 99.1123 25.665 90.7809C24.5117 79.0674 16.9492 64.9887 7.93168 68.2882C-1.08585 71.5876 12.073 83.5445 14.9929 93.4721C17.9128 103.4 20.2292 112.792 20.2292 112.792Z" fill="#00B87C"/>
<path opacity="0.1" d="M20.2292 112.792L25.2514 109.872C25.2514 109.872 26.4826 99.1123 25.665 90.7809C24.5117 79.0674 16.9492 64.9887 7.93168 68.2882C-1.08585 71.5876 12.073 83.5445 14.9929 93.4721C17.9128 103.4 20.2292 112.792 20.2292 112.792Z" fill="#3A3A3A"/>
<path d="M22.8429 111.473C22.8899 111.474 22.9354 111.457 22.9712 111.427C23.007 111.396 23.0305 111.354 23.0376 111.308C24.7457 98.1682 20.069 78.3083 10.6281 70.775C10.6087 70.7593 10.5863 70.7475 10.5623 70.7405C10.5383 70.7334 10.5131 70.7312 10.4882 70.7339C10.4633 70.7366 10.4392 70.7442 10.4173 70.7563C10.3954 70.7683 10.3761 70.7846 10.3605 70.8042C10.3284 70.8443 10.3135 70.8954 10.319 70.9465C10.3244 70.9975 10.3498 71.0443 10.3897 71.0767C19.7284 78.5321 24.3466 98.2364 22.6531 111.254C22.6462 111.305 22.6597 111.357 22.6907 111.398C22.7217 111.439 22.7677 111.466 22.8186 111.473H22.8429Z" fill="white"/>
<path d="M17.5477 114.87L21.1197 112.802C21.1197 112.802 21.728 105.419 18.1074 96.4503C14.9588 88.664 7.13841 82.1624 3.20632 83.525C-0.725779 84.8876 -0.62845 87.6761 1.28893 90.6008C3.20631 93.5255 14.8712 100.499 17.5477 114.87Z" fill="#00B87C"/>
<path d="M19.7622 115.06C19.7876 115.058 19.8125 115.052 19.8354 115.041C19.8583 115.03 19.8787 115.015 19.8955 114.996C19.9123 114.976 19.9251 114.954 19.9331 114.93C19.9412 114.906 19.9443 114.881 19.9423 114.855C18.7646 96.4796 9.46969 87.4425 3.883 86.0653C3.83272 86.0534 3.77975 86.0614 3.73528 86.0878C3.6908 86.1141 3.65826 86.1566 3.64454 86.2065C3.63273 86.2561 3.64092 86.3084 3.66732 86.3521C3.69371 86.3958 3.73621 86.4274 3.78567 86.4401C9.66921 87.9 18.4483 97.6816 19.5481 114.88C19.5499 114.906 19.557 114.931 19.5688 114.954C19.5806 114.978 19.597 114.998 19.617 115.015C19.637 115.032 19.6601 115.044 19.6851 115.052C19.71 115.06 19.7363 115.062 19.7622 115.06Z" fill="white"/>
<path d="M164.88 114.223C164.88 114.223 164.213 103.434 170.481 96.0366C176.749 88.6396 184.91 88.6688 187.611 90.046C190.312 91.4232 192.127 95.3602 187.479 98.1778C182.832 100.996 172.948 106.636 171.303 111.668L164.88 114.223Z" fill="#00B87C"/>
<path opacity="0.1" d="M164.88 114.223C164.88 114.223 164.213 103.434 170.481 96.0366C176.749 88.6396 184.91 88.6688 187.611 90.046C190.312 91.4232 192.127 95.3602 187.479 98.1778C182.832 100.996 172.948 106.636 171.303 111.668L164.88 114.223Z" fill="#3A3A3A"/>
<path d="M167.829 111.522C167.889 111.521 167.947 111.498 167.992 111.458C168.036 111.418 168.065 111.362 168.072 111.303C169.362 99.3652 181.294 92.7517 186.049 92.0023C186.081 91.9975 186.111 91.9865 186.139 91.9698C186.167 91.9532 186.191 91.9312 186.21 91.9052C186.229 91.8793 186.243 91.8497 186.251 91.8184C186.259 91.787 186.26 91.7544 186.256 91.7225C186.251 91.6905 186.24 91.6598 186.223 91.6322C186.206 91.6045 186.184 91.5803 186.159 91.5611C186.133 91.5419 186.103 91.528 186.072 91.5202C186.04 91.5124 186.008 91.5109 185.976 91.5157C181.109 92.2797 168.909 99.0441 167.585 111.249C167.582 111.281 167.585 111.313 167.594 111.344C167.604 111.375 167.619 111.404 167.639 111.429C167.659 111.454 167.685 111.474 167.713 111.489C167.741 111.504 167.772 111.514 167.804 111.517L167.829 111.522Z" fill="white"/>
<path d="M170.15 108.782C171.722 105.2 173.498 103.594 178.608 104.451C183.718 105.307 182.988 105.176 189.241 103.575C191.879 102.903 194.842 102.796 197.373 103.935C199.509 104.908 201.106 106.855 199.037 108.928C196.711 111.244 193.241 112.038 190.672 114.077C190.089 114.489 189.626 115.048 189.329 115.697C188.652 117.42 190.005 119.362 189.611 121.167C189.217 122.972 187.319 123.936 185.538 124.053C183.757 124.17 182 123.634 180.224 123.43C178.447 123.226 176.452 123.43 175.226 124.749C173.912 126.145 173.878 128.379 172.656 129.863C170.826 132.087 166.33 132.705 163.897 131.323L157.526 127.649C153.317 121.975 159.96 117.478 163.439 113.074C165.128 110.928 169.206 110.938 170.15 108.782Z" fill="#00B87C"/>
<path d="M161.473 124.223C161.514 124.224 161.555 124.214 161.591 124.193C161.627 124.173 161.657 124.143 161.677 124.106C168.943 112.334 188.725 106.378 195.723 105.891C195.787 105.886 195.846 105.856 195.888 105.808C195.93 105.76 195.951 105.697 195.947 105.633C195.942 105.569 195.912 105.51 195.864 105.467C195.816 105.424 195.753 105.402 195.689 105.405C188.598 105.891 168.627 111.935 161.264 123.863C161.231 123.919 161.221 123.985 161.237 124.048C161.252 124.11 161.292 124.165 161.346 124.199C161.386 124.216 161.429 124.225 161.473 124.223Z" fill="white"/>
<path d="M184.487 118.675C184.525 118.676 184.562 118.668 184.596 118.651C184.63 118.634 184.659 118.609 184.681 118.578C184.72 118.526 184.737 118.462 184.728 118.398C184.718 118.334 184.684 118.276 184.633 118.237C184.38 118.048 178.345 113.619 172.467 113.532C172.435 113.531 172.403 113.537 172.374 113.548C172.344 113.56 172.317 113.577 172.295 113.6C172.272 113.622 172.254 113.648 172.242 113.678C172.23 113.707 172.223 113.738 172.223 113.77C172.223 113.802 172.228 113.834 172.24 113.863C172.251 113.893 172.269 113.92 172.291 113.943C172.313 113.967 172.34 113.985 172.369 113.998C172.398 114.011 172.43 114.018 172.462 114.018C178.17 114.101 184.268 118.583 184.331 118.627C184.375 118.662 184.43 118.679 184.487 118.675Z" fill="white"/>
<path d="M161.926 128.36C161.874 129.067 161.656 129.753 161.29 130.361C160.924 130.969 160.42 131.482 159.819 131.859L100.774 165.948C100.121 166.279 99.399 166.452 98.6668 166.452C97.9345 166.452 97.2126 166.279 96.5596 165.948L15.7765 119.303C15.1398 118.967 14.6068 118.464 14.235 117.847C13.8633 117.231 13.6668 116.524 13.6668 115.804C13.6668 115.084 13.8633 114.378 14.235 113.761C14.6068 113.145 15.1398 112.641 15.7765 112.305L74.8163 78.2401C75.4693 77.9087 76.1912 77.7361 76.9235 77.7361C77.6557 77.7361 78.3776 77.9087 79.0306 78.2401L159.819 124.87C160.419 125.246 160.922 125.758 161.288 126.364C161.654 126.97 161.872 127.654 161.926 128.36Z" fill="#37474F"/>
<path d="M137.564 112.013L159.819 124.87C160.455 125.207 160.988 125.71 161.36 126.327C161.732 126.943 161.928 127.649 161.928 128.369C161.928 129.089 161.732 129.796 161.36 130.412C160.988 131.029 160.455 131.532 159.819 131.868L100.774 165.958C100.124 166.297 99.3991 166.465 98.6667 166.445V112.013H137.564Z" fill="#263238"/>
<path d="M163.907 124.939C164.493 124.539 164.977 124.007 165.321 123.385C165.664 122.764 165.856 122.071 165.882 121.362V50.9003C165.843 50.169 165.632 49.4573 165.266 48.8231C164.9 48.1889 164.389 47.65 163.775 47.2505L82.9921 0.605515C82.3823 0.223034 81.6798 0.0139308 80.9601 0.000672248C80.2404 -0.0125863 79.5307 0.170499 78.9073 0.53026C78.2838 0.890021 77.7702 1.41286 77.4215 2.04259C77.0729 2.67233 76.9024 3.38516 76.9284 4.10449V74.5707C76.9684 75.3018 77.18 76.0132 77.5461 76.6473C77.9122 77.2814 78.4225 77.8204 79.0356 78.2206L159.819 124.87C160.447 125.202 161.144 125.38 161.855 125.392C162.565 125.404 163.268 125.249 163.907 124.939Z" fill="#455A64"/>
<path d="M155.994 54.1755L165.264 48.8224C165.633 49.454 165.836 50.169 165.853 50.9004V121.362C165.827 122.071 165.634 122.764 165.291 123.386C164.948 124.007 164.464 124.539 163.877 124.939C163.238 125.246 162.536 125.4 161.826 125.386C161.117 125.373 160.421 125.193 159.794 124.861L150.577 119.542L155.994 54.1755Z" fill="#263238"/>
<path d="M161.926 53.1875V123.644C161.926 124.987 160.982 125.532 159.819 124.861L79.0355 78.2206C78.4223 77.8204 77.912 77.2814 77.546 76.6473C77.1799 76.0132 76.9683 75.3018 76.9283 74.5707V4.10936C76.9283 2.76622 77.8724 2.22118 79.0355 2.89275L159.819 49.5377C160.432 49.9373 160.943 50.4761 161.309 51.1103C161.675 51.7445 161.887 52.4562 161.926 53.1875Z" fill="#37474F"/>
<path d="M159.818 127.304L100.774 161.369C100.121 161.7 99.3988 161.873 98.6665 161.873C97.9343 161.873 97.2124 161.7 96.5594 161.369L15.7763 114.724C14.6083 114.052 14.6083 112.962 15.7763 112.291L74.8161 78.2255C75.4691 77.8942 76.191 77.7216 76.9232 77.7216C77.6555 77.7216 78.3774 77.8942 79.0304 78.2255L159.818 124.87C160.986 125.532 160.986 126.622 159.818 127.304Z" fill="#455A64"/>
<path d="M158.684 53.4454L80.1642 8.11445C79.4683 7.71054 78.899 8.03659 78.899 8.84442V69.8357C78.9235 70.2743 79.0508 70.701 79.2706 71.0814C79.4903 71.4618 79.7965 71.7852 80.1642 72.0256L158.684 117.357C159.385 117.76 159.95 117.434 159.95 116.627V55.6354C159.926 55.1964 159.8 54.7693 159.58 54.3887C159.36 54.0081 159.053 53.6849 158.684 53.4454Z" fill="white"/>
<path d="M152.966 125.469L77.9792 82.1576C77.6527 81.9921 77.2917 81.9059 76.9256 81.9059C76.5596 81.9059 76.1986 81.9921 75.8721 82.1576L72.0324 84.3718C71.9053 84.4149 71.7949 84.4968 71.7167 84.6059C71.6385 84.715 71.5965 84.8459 71.5965 84.9801C71.5965 85.1144 71.6385 85.2452 71.7167 85.3543C71.7949 85.4634 71.9053 85.5453 72.0324 85.5884L147.034 128.895C147.361 129.06 147.722 129.147 148.088 129.147C148.454 129.147 148.815 129.06 149.141 128.895L152.966 126.686C153.094 126.642 153.204 126.561 153.282 126.451C153.36 126.342 153.402 126.212 153.402 126.077C153.402 125.943 153.36 125.812 153.282 125.703C153.204 125.594 153.094 125.512 152.966 125.469Z" fill="#263238"/>
<path d="M143.078 131.197L68.0954 87.8854C67.7679 87.7199 67.4062 87.6337 67.0394 87.6337C66.6725 87.6337 66.3107 87.7199 65.9833 87.8854L42.3956 101.511C42.2685 101.555 42.1581 101.636 42.0799 101.746C42.0017 101.855 41.9597 101.986 41.9597 102.12C41.9597 102.254 42.0017 102.385 42.0799 102.494C42.1581 102.603 42.2685 102.685 42.3956 102.728L117.295 145.952C117.623 146.117 117.984 146.204 118.351 146.204C118.718 146.204 119.08 146.117 119.407 145.952L143.078 132.389C143.199 132.343 143.303 132.262 143.376 132.155C143.45 132.049 143.489 131.922 143.489 131.793C143.489 131.664 143.45 131.537 143.376 131.431C143.303 131.324 143.199 131.243 143.078 131.197Z" fill="#263238"/>
<path d="M75.8624 107.351L73.5119 105.993C73.4146 105.935 73.4195 105.843 73.5119 105.779L76.2274 104.212C76.2853 104.182 76.3496 104.167 76.4148 104.167C76.48 104.167 76.5442 104.182 76.6021 104.212L78.9478 105.57C79.05 105.628 79.0451 105.721 78.9478 105.784L76.2323 107.351C76.175 107.38 76.1116 107.395 76.0473 107.395C75.9831 107.395 75.9197 107.38 75.8624 107.351ZM80.4953 101.998L82.8409 103.356C82.9431 103.409 82.9383 103.507 82.8409 103.57L80.1254 105.137C80.0675 105.167 80.0033 105.182 79.9381 105.182C79.8729 105.182 79.8087 105.167 79.7507 105.137L77.4002 103.779C77.3029 103.721 77.3078 103.623 77.4002 103.565L80.1206 101.998C80.1785 101.968 80.2427 101.953 80.3079 101.953C80.3731 101.953 80.4374 101.968 80.4953 101.998ZM88.0772 106.378L92.0531 108.67C92.1504 108.728 92.1456 108.826 92.0531 108.889L89.3376 110.456C89.2797 110.486 89.2155 110.501 89.1503 110.501C89.0851 110.501 89.0209 110.486 88.9629 110.456L84.9919 108.164C84.8897 108.105 84.8994 108.008 84.9919 107.95L87.7074 106.378C87.7645 106.348 87.8279 106.332 87.8923 106.332C87.9567 106.332 88.0201 106.348 88.0772 106.378ZM83.9261 103.979L86.2718 105.336C86.374 105.395 86.3691 105.492 86.2718 105.551L83.5563 107.118C83.4984 107.147 83.4341 107.163 83.3689 107.163C83.3037 107.163 83.2395 107.147 83.1816 107.118L80.8311 105.76C80.7338 105.701 80.7386 105.609 80.8311 105.546L83.5514 103.945C83.6094 103.915 83.6736 103.899 83.7388 103.899C83.804 103.899 83.8682 103.915 83.9261 103.945V103.979ZM93.1383 109.298L95.484 110.651C95.5862 110.709 95.5764 110.806 95.484 110.87L92.7685 112.437C92.7111 112.465 92.6478 112.48 92.5836 112.48C92.5194 112.48 92.4561 112.465 92.3986 112.437L90.0481 111.079C89.9508 111.021 89.9557 110.923 90.0481 110.865L92.7636 109.298C92.8215 109.268 92.8858 109.252 92.951 109.252C93.0162 109.252 93.0804 109.268 93.1383 109.298ZM96.5448 111.278L98.8905 112.636C98.9927 112.69 98.9829 112.787 98.8905 112.85L96.175 114.417C96.1171 114.447 96.0528 114.463 95.9876 114.463C95.9225 114.463 95.8582 114.447 95.8003 114.417L93.4498 113.06C93.3525 113.001 93.3573 112.904 93.4498 112.845L96.1945 111.244C96.2524 111.214 96.3166 111.199 96.3818 111.199C96.447 111.199 96.5112 111.214 96.5692 111.244L96.5448 111.278ZM85.863 117.653L83.5174 116.296C83.4152 116.237 83.4249 116.145 83.5174 116.082L86.2328 114.515C86.2899 114.485 86.3534 114.469 86.4178 114.469C86.4822 114.469 86.5456 114.485 86.6027 114.515L88.9532 115.872C89.0505 115.931 89.0457 116.023 88.9532 116.086L86.2377 117.653C86.1812 117.676 86.1204 117.685 86.0598 117.681C85.9992 117.677 85.9402 117.659 85.8873 117.629L85.863 117.653ZM89.2987 119.634L86.9482 118.276C86.8509 118.223 86.8557 118.126 86.9482 118.062L89.6637 116.495C89.7216 116.465 89.7859 116.45 89.8511 116.45C89.9162 116.45 89.9805 116.465 90.0384 116.495L92.384 117.853C92.4862 117.911 92.4765 118.009 92.384 118.067L89.6686 119.634C89.6128 119.656 89.5528 119.666 89.493 119.661C89.4332 119.657 89.3751 119.64 89.323 119.61L89.2987 119.634ZM92.7295 121.615L90.3791 120.262C90.2817 120.203 90.2866 120.106 90.3791 120.043L93.0945 118.476C93.1528 118.447 93.2169 118.432 93.2819 118.432C93.3469 118.432 93.411 118.447 93.4692 118.476L95.8149 119.834C95.9171 119.892 95.9073 119.989 95.8149 120.048L93.1043 121.615C93.0477 121.637 92.9869 121.646 92.9263 121.642C92.8657 121.638 92.8068 121.62 92.7539 121.59L92.7295 121.615ZM96.1361 123.595L93.7856 122.243C93.6882 122.184 93.6931 122.087 93.7856 122.024L96.5011 120.457C96.559 120.427 96.6232 120.411 96.6884 120.411C96.7536 120.411 96.8178 120.427 96.8758 120.457L99.2214 121.809C99.3236 121.868 99.3187 121.965 99.2214 122.028L96.5059 123.595C96.3998 123.63 96.2844 123.621 96.1847 123.571L96.1361 123.595ZM79.2446 109.366L76.8941 108.008C76.7968 107.955 76.8017 107.857 76.8941 107.794L79.6096 106.227C79.6679 106.198 79.732 106.183 79.797 106.183C79.8619 106.183 79.926 106.198 79.9843 106.227L82.3299 107.585C82.4321 107.643 82.4273 107.741 82.3299 107.799L79.6145 109.366C79.5621 109.384 79.5066 109.391 79.4514 109.387C79.3962 109.383 79.3424 109.367 79.2933 109.342L79.2446 109.366ZM82.4078 115.692L77.1715 112.665C77.0742 112.612 77.079 112.515 77.1715 112.451L83.7655 108.646C83.8235 108.616 83.8877 108.6 83.9529 108.6C84.0181 108.6 84.0823 108.616 84.1403 108.646L86.846 110.213C86.9482 110.266 86.9385 110.364 86.846 110.427L83.3519 112.441C83.2448 112.505 83.24 112.602 83.3519 112.66L85.5564 113.858C85.6537 113.911 85.6489 114.008 85.5564 114.072L82.8312 115.624C82.7752 115.658 82.712 115.678 82.6468 115.682C82.5816 115.686 82.5163 115.675 82.4565 115.648L82.4078 115.692ZM99.9514 113.259L102.297 114.617C102.399 114.675 102.394 114.768 102.297 114.831L99.5815 116.398C99.5236 116.428 99.4593 116.443 99.3942 116.443C99.329 116.443 99.2647 116.428 99.2068 116.398L96.8563 115.04C96.759 114.982 96.7638 114.889 96.8563 114.826L99.5718 113.259C99.6339 113.216 99.7068 113.191 99.7825 113.186C99.8581 113.182 99.9334 113.199 100 113.235L99.9514 113.259ZM103.358 115.24L105.781 116.597C105.879 116.656 105.874 116.753 105.781 116.812L103.066 118.379C103.008 118.408 102.944 118.424 102.879 118.424C102.813 118.424 102.749 118.408 102.691 118.379L100.341 117.021C100.243 116.967 100.248 116.87 100.341 116.807L103.076 115.225C103.13 115.197 103.191 115.181 103.252 115.18C103.314 115.178 103.375 115.19 103.431 115.215L103.358 115.24ZM120.595 137.431C120.537 137.461 120.473 137.476 120.407 137.476C120.342 137.476 120.278 137.461 120.22 137.431L117.87 136.073C117.772 136.019 117.777 135.922 117.87 135.859L120.595 134.302C120.653 134.272 120.717 134.256 120.782 134.256C120.847 134.256 120.912 134.272 120.97 134.302L123.315 135.659C123.417 135.718 123.413 135.815 123.315 135.873L120.595 137.431ZM130.897 131.065L133.248 132.423C133.345 132.482 133.34 132.574 133.248 132.637L130.532 134.204C130.474 134.234 130.41 134.25 130.345 134.25C130.28 134.25 130.215 134.234 130.157 134.204L127.807 132.847C127.71 132.788 127.714 132.696 127.807 132.632L130.522 131.065C130.578 131.038 130.64 131.024 130.702 131.024C130.765 131.024 130.826 131.038 130.883 131.065H130.897ZM125.374 135.713C125.316 135.743 125.252 135.758 125.186 135.758C125.121 135.758 125.057 135.743 124.999 135.713L122.653 134.355C122.551 134.302 122.561 134.204 122.653 134.141L125.364 132.574C125.422 132.544 125.486 132.529 125.551 132.529C125.617 132.529 125.681 132.544 125.739 132.574L128.089 133.932C128.187 133.99 128.182 134.087 128.089 134.146L125.374 135.713ZM114.536 138.633L112.186 137.275C112.088 137.217 112.093 137.124 112.186 137.061L114.901 135.494C114.959 135.464 115.023 135.448 115.088 135.448C115.154 135.448 115.218 135.464 115.276 135.494L117.621 136.852C117.724 136.905 117.714 137.002 117.621 137.066L114.911 138.633C114.851 138.666 114.785 138.684 114.717 138.685C114.649 138.685 114.582 138.669 114.522 138.638L114.536 138.633ZM118.342 140.579C118.284 140.609 118.22 140.625 118.154 140.625C118.089 140.625 118.025 140.609 117.967 140.579L115.616 139.222C115.519 139.168 115.524 139.071 115.616 139.007L118.332 137.44C118.39 137.411 118.454 137.395 118.519 137.395C118.584 137.395 118.649 137.411 118.707 137.44L121.052 138.798C121.154 138.857 121.15 138.954 121.052 139.012L118.342 140.579ZM127.466 129.056L129.812 130.413C129.914 130.467 129.909 130.564 129.812 130.627L127.096 132.194C127.038 132.224 126.974 132.24 126.909 132.24C126.844 132.24 126.78 132.224 126.722 132.194L124.371 130.837C124.274 130.778 124.279 130.681 124.371 130.623L127.087 129.056C127.146 129.032 127.209 129.022 127.273 129.027C127.336 129.032 127.397 129.052 127.452 129.085L127.466 129.056ZM110.307 119.152L112.658 120.505C112.755 120.564 112.75 120.661 112.658 120.719L109.942 122.291C109.884 122.32 109.82 122.335 109.755 122.335C109.69 122.335 109.626 122.32 109.567 122.291L107.222 120.938C107.12 120.88 107.125 120.783 107.222 120.719L109.937 119.152C109.995 119.13 110.057 119.121 110.118 119.126C110.18 119.131 110.239 119.15 110.293 119.182L110.307 119.152ZM124.001 127.104L126.347 128.457C126.449 128.515 126.444 128.613 126.347 128.676L123.632 130.243C123.573 130.272 123.509 130.287 123.444 130.287C123.379 130.287 123.315 130.272 123.257 130.243L120.906 128.885C120.809 128.827 120.814 128.73 120.906 128.671L123.622 127.099C123.681 127.07 123.746 127.056 123.812 127.057C123.878 127.058 123.943 127.074 124.001 127.104ZM106.842 117.196L109.212 118.544C109.31 118.602 109.305 118.7 109.212 118.758L106.497 120.325C106.439 120.355 106.375 120.371 106.309 120.371C106.244 120.371 106.18 120.355 106.122 120.325L103.776 118.972C103.674 118.914 103.679 118.817 103.776 118.753L106.482 117.206C106.54 117.175 106.605 117.158 106.671 117.156C106.737 117.154 106.802 117.168 106.862 117.196H106.842ZM113.704 121.162L116.054 122.515C116.152 122.573 116.147 122.671 116.054 122.734L113.339 124.301C113.281 124.33 113.217 124.345 113.152 124.345C113.087 124.345 113.023 124.33 112.964 124.301L110.619 122.948C110.516 122.89 110.526 122.792 110.619 122.729L113.329 121.162C113.39 121.13 113.458 121.114 113.526 121.114C113.595 121.114 113.663 121.13 113.723 121.162H113.704ZM117.14 123.143L119.485 124.496C119.587 124.554 119.578 124.651 119.485 124.715L116.77 126.282C116.712 126.31 116.647 126.325 116.582 126.325C116.517 126.325 116.453 126.31 116.395 126.282L114.049 124.929C113.952 124.87 113.957 124.773 114.049 124.71L116.765 123.143C116.826 123.111 116.893 123.094 116.962 123.094C117.031 123.094 117.098 123.111 117.159 123.143H117.14ZM120.595 125.123L122.94 126.476C123.043 126.535 123.033 126.632 122.94 126.695L120.23 128.262C120.172 128.292 120.108 128.308 120.043 128.308C119.977 128.308 119.913 128.292 119.855 128.262L117.505 126.909C117.407 126.851 117.412 126.754 117.505 126.69L120.22 125.123C120.278 125.095 120.343 125.08 120.407 125.08C120.472 125.08 120.537 125.095 120.595 125.123ZM103.051 127.557L100.706 126.204C100.603 126.145 100.608 126.048 100.706 125.985L103.426 124.384C103.484 124.355 103.548 124.34 103.613 124.34C103.678 124.34 103.742 124.355 103.801 124.384L106.151 125.737C106.249 125.795 106.244 125.892 106.151 125.956L103.436 127.523C103.377 127.557 103.31 127.575 103.242 127.577C103.174 127.579 103.107 127.563 103.046 127.532L103.051 127.557ZM72.9036 97.6183L75.2541 98.976C75.3514 99.0344 75.3466 99.1269 75.2541 99.1902L72.5386 100.757C72.4807 100.787 72.4165 100.803 72.3513 100.803C72.2861 100.803 72.2219 100.787 72.1639 100.757L69.8183 99.3994C69.7161 99.341 69.721 99.2486 69.8183 99.1853L72.5338 97.6183C72.5911 97.5892 72.6544 97.5741 72.7187 97.5741C72.783 97.5741 72.8463 97.5892 72.9036 97.6183ZM77.0596 100.017L79.4052 101.375C79.5074 101.429 79.4977 101.526 79.4052 101.589L76.6946 103.156C76.6363 103.185 76.5722 103.2 76.5072 103.2C76.4423 103.2 76.3781 103.185 76.3199 103.156L73.9694 101.799C73.8721 101.74 73.8769 101.643 73.9694 101.584L76.6849 100.017C76.7414 99.9829 76.8055 99.9627 76.8717 99.9584C76.9378 99.9542 77.0039 99.9661 77.0644 99.9931L77.0596 100.017ZM69.4728 95.6376L71.8184 96.9954C71.9206 97.0489 71.9157 97.1462 71.8184 97.2095L69.1029 98.7765C69.045 98.8064 68.9808 98.822 68.9156 98.822C68.8504 98.822 68.7862 98.8064 68.7282 98.7765L66.3777 97.4188C66.2804 97.3604 66.2852 97.263 66.3777 97.2046L69.0932 95.6376C69.1526 95.5989 69.2211 95.5763 69.2919 95.572C69.3627 95.5677 69.4335 95.582 69.4971 95.6133L69.4728 95.6376ZM87.2353 113.955L84.8848 112.597C84.7875 112.539 84.7924 112.441 84.8848 112.383L87.6003 110.816C87.6583 110.786 87.7225 110.771 87.7877 110.771C87.8528 110.771 87.9171 110.786 87.975 110.816L90.3207 112.174C90.4229 112.227 90.418 112.325 90.3207 112.388L87.6052 113.955C87.5466 113.98 87.4832 113.99 87.4198 113.986C87.3565 113.982 87.295 113.963 87.2402 113.931L87.2353 113.955ZM65.6672 93.6667C65.7252 93.6369 65.7894 93.6213 65.8546 93.6213C65.9198 93.6213 65.984 93.6369 66.0419 93.6667L68.3876 95.0245C68.4898 95.078 68.4849 95.1753 68.3876 95.2386L65.6721 96.8056C65.6138 96.8343 65.5497 96.8493 65.4847 96.8493C65.4197 96.8493 65.3556 96.8343 65.2974 96.8056L62.9469 95.4479C62.8495 95.3895 62.8544 95.2921 62.9469 95.2337L65.6672 93.6667ZM99.6156 125.552L97.2651 124.199C97.1678 124.14 97.1726 124.043 97.2651 123.98L99.9952 122.437C100.053 122.407 100.117 122.392 100.183 122.392C100.248 122.392 100.312 122.407 100.37 122.437L102.716 123.79C102.818 123.848 102.813 123.946 102.716 124.009L100 125.576C99.9386 125.603 99.8717 125.614 99.8049 125.61C99.738 125.606 99.6732 125.586 99.6156 125.552ZM57.5354 101.258L55.1849 99.9007C55.0875 99.8471 55.0924 99.7498 55.1849 99.6865L57.915 98.1049C57.9729 98.0751 58.0371 98.0595 58.1023 98.0595C58.1675 98.0595 58.2317 98.0751 58.2897 98.1049L60.6353 99.4627C60.7375 99.5211 60.7326 99.6184 60.6353 99.6768L57.9198 101.244C57.8619 101.278 57.7965 101.297 57.7294 101.299C57.6624 101.302 57.5957 101.288 57.5354 101.258ZM64.8351 101L62.4846 99.6427C62.3872 99.5843 62.3921 99.4919 62.4846 99.4286L65.2 97.8616C65.258 97.8317 65.3222 97.8162 65.3874 97.8162C65.4526 97.8162 65.5168 97.8317 65.5748 97.8616L67.9204 99.2194C68.0226 99.2778 68.0177 99.3702 67.9204 99.4335L65.2049 101C65.1507 101.032 65.0901 101.05 65.0277 101.055C64.9652 101.059 64.9027 101.049 64.8448 101.025L64.8351 101ZM61.7838 95.881C61.8417 95.8511 61.906 95.8355 61.9711 95.8355C62.0363 95.8355 62.1006 95.8511 62.1585 95.881L64.5041 97.2387C64.6063 97.2922 64.6015 97.3896 64.5041 97.4528L61.7887 99.0198C61.7307 99.0497 61.6665 99.0653 61.6013 99.0653C61.5361 99.0653 61.4719 99.0497 61.4139 99.0198L59.0634 97.6621C58.9661 97.6037 58.971 97.5064 59.0634 97.448L61.7838 95.881ZM61.0587 95.4625L54.4695 99.268C54.4116 99.2979 54.3473 99.3135 54.2821 99.3135C54.217 99.3135 54.1527 99.2979 54.0948 99.268L51.7443 97.9103C51.647 97.8519 51.6518 97.7594 51.7443 97.6962L58.3383 93.8906C58.3963 93.8607 58.4605 93.8451 58.5257 93.8451C58.5909 93.8451 58.6551 93.8607 58.7131 93.8906L61.0587 95.2483C61.1852 95.3019 61.1755 95.3992 61.0684 95.4625H61.0587ZM69.0202 99.8423L71.3707 101.2C71.468 101.258 71.4632 101.356 71.3707 101.414L68.6552 102.981C68.5973 103.011 68.533 103.027 68.4679 103.027C68.4027 103.027 68.3384 103.011 68.2805 102.981L65.9349 101.623C65.8327 101.57 65.8375 101.473 65.9349 101.409L68.6504 99.8423C68.7057 99.8132 68.7669 99.7973 68.8293 99.7956C68.8917 99.7939 68.9537 99.8065 69.0105 99.8325L69.0202 99.8423ZM94.8465 114.753L97.2067 116.111C97.304 116.169 97.2991 116.267 97.2067 116.325L94.4912 117.892C94.4333 117.922 94.369 117.937 94.3039 117.937C94.2387 117.937 94.1744 117.922 94.1165 117.892L91.7709 116.534C91.6687 116.481 91.6735 116.383 91.7709 116.32L94.4863 114.753C94.5429 114.722 94.6058 114.706 94.6701 114.704C94.7344 114.702 94.7981 114.716 94.8562 114.743L94.8465 114.753ZM61.3312 103.239C61.2733 103.269 61.209 103.285 61.1438 103.285C61.0787 103.285 61.0144 103.269 60.9565 103.239L58.606 101.881C58.5087 101.828 58.5135 101.73 58.606 101.667L61.3215 100.1C61.3797 100.071 61.4438 100.056 61.5088 100.056C61.5738 100.056 61.6379 100.071 61.6962 100.1L64.0418 101.458C64.144 101.516 64.1392 101.614 64.0418 101.672L61.3312 103.239ZM91.4156 112.772L93.7612 114.13C93.8634 114.189 93.8586 114.281 93.7612 114.344L91.0458 115.911C90.9878 115.941 90.9236 115.957 90.8584 115.957C90.7932 115.957 90.729 115.941 90.671 115.911L88.3205 114.554C88.2232 114.495 88.2281 114.403 88.3205 114.339L91.036 112.772C91.095 112.739 91.1615 112.72 91.2295 112.718C91.2974 112.717 91.3648 112.732 91.4253 112.763L91.4156 112.772ZM117.14 135.46C117.082 135.49 117.017 135.505 116.952 135.505C116.887 135.505 116.823 135.49 116.765 135.46L114.414 134.102C114.317 134.044 114.322 133.951 114.414 133.888L117.13 132.321C117.188 132.291 117.252 132.275 117.317 132.275C117.382 132.275 117.447 132.291 117.505 132.321L119.85 133.679C119.952 133.737 119.943 133.83 119.85 133.893L117.14 135.46ZM122.298 130.593L124.649 131.951C124.746 132.009 124.741 132.102 124.649 132.165L121.933 133.732C121.875 133.762 121.811 133.778 121.746 133.778C121.681 133.778 121.616 133.762 121.558 133.732L119.213 132.374C119.111 132.316 119.115 132.224 119.213 132.16L121.928 130.593C121.987 130.563 122.052 130.547 122.118 130.547C122.184 130.547 122.249 130.563 122.308 130.593H122.298ZM113.329 133.479L110.984 132.121C110.886 132.063 110.891 131.966 110.984 131.907L113.699 130.34C113.757 130.31 113.821 130.295 113.886 130.295C113.952 130.295 114.016 130.31 114.074 130.34L116.444 131.683C116.541 131.737 116.536 131.834 116.444 131.898L113.728 133.465C113.67 133.499 113.603 133.519 113.535 133.521C113.467 133.524 113.4 133.509 113.339 133.479H113.329ZM109.898 131.499L107.553 130.141C107.451 130.082 107.46 129.985 107.553 129.927L110.263 128.36C110.321 128.33 110.386 128.314 110.451 128.314C110.516 128.314 110.58 128.33 110.638 128.36L112.989 129.713C113.086 129.771 113.081 129.868 112.989 129.932L110.273 131.499C110.214 131.529 110.148 131.545 110.081 131.545C110.014 131.545 109.948 131.529 109.889 131.499H109.898ZM106.492 129.513L104.146 128.16C104.044 128.102 104.049 128.004 104.146 127.946L106.862 126.374C106.92 126.345 106.984 126.33 107.049 126.33C107.114 126.33 107.178 126.345 107.236 126.374L109.587 127.727C109.684 127.785 109.679 127.883 109.587 127.946L106.871 129.513C106.812 129.545 106.745 129.562 106.677 129.562C106.609 129.562 106.542 129.545 106.482 129.513H106.492ZM118.892 128.613L121.242 129.97C121.339 130.024 121.335 130.121 121.242 130.185L118.527 131.752C118.469 131.781 118.404 131.797 118.339 131.797C118.274 131.797 118.21 131.781 118.152 131.752L115.801 130.394C115.704 130.335 115.709 130.238 115.801 130.18L118.517 128.613C118.573 128.585 118.635 128.571 118.697 128.571C118.759 128.571 118.821 128.585 118.877 128.613H118.892ZM115.461 126.632L117.806 127.985C117.909 128.043 117.904 128.141 117.806 128.204L115.091 129.771C115.033 129.8 114.969 129.815 114.904 129.815C114.839 129.815 114.774 129.8 114.716 129.771L112.322 128.423C112.225 128.365 112.229 128.267 112.322 128.209L115.037 126.642C115.099 126.604 115.169 126.584 115.24 126.582C115.312 126.58 115.383 126.598 115.446 126.632H115.461ZM101.732 118.709L104.049 120.062C104.146 120.121 104.141 120.218 104.049 120.281L101.333 121.848C101.275 121.877 101.211 121.892 101.146 121.892C101.081 121.892 101.017 121.877 100.959 121.848L98.6131 120.495C98.5109 120.437 98.5206 120.34 98.6131 120.276L101.324 118.709C101.384 118.676 101.452 118.659 101.521 118.659C101.59 118.659 101.658 118.676 101.718 118.709H101.732ZM105.168 120.69L107.514 122.043C107.611 122.101 107.606 122.199 107.514 122.262L104.798 123.829C104.74 123.858 104.676 123.873 104.611 123.873C104.546 123.873 104.482 123.858 104.424 123.829L102.078 122.476C101.976 122.418 101.986 122.32 102.078 122.257L104.793 120.69C104.85 120.664 104.911 120.65 104.974 120.65C105.036 120.65 105.097 120.664 105.154 120.69H105.168ZM98.3016 116.724L100.642 118.082C100.74 118.14 100.735 118.237 100.642 118.296L97.9269 119.868C97.8686 119.896 97.8045 119.911 97.7396 119.911C97.6746 119.911 97.6105 119.896 97.5522 119.868L95.2066 118.51C95.1044 118.456 95.1092 118.359 95.2066 118.296L97.9221 116.729C97.9787 116.701 98.0408 116.686 98.104 116.685C98.1672 116.684 98.2297 116.698 98.287 116.724H98.3016ZM112.03 124.651L114.376 126.004C114.478 126.063 114.473 126.16 114.376 126.223L111.66 127.79C111.602 127.819 111.538 127.834 111.473 127.834C111.408 127.834 111.344 127.819 111.285 127.79L108.935 126.433C108.838 126.374 108.842 126.277 108.935 126.218L111.65 124.647C111.708 124.62 111.77 124.607 111.833 124.608C111.897 124.608 111.959 124.623 112.015 124.651H112.03ZM108.599 122.671L110.945 124.024C111.047 124.082 111.037 124.179 110.945 124.243L108.229 125.81C108.172 125.839 108.109 125.855 108.044 125.855C107.98 125.855 107.916 125.839 107.859 125.81L105.509 124.457C105.412 124.398 105.416 124.301 105.509 124.238L108.224 122.671C108.281 122.644 108.342 122.631 108.404 122.631C108.467 122.631 108.528 122.644 108.584 122.671H108.599ZM111.1 136.657L108.755 135.299C108.657 135.241 108.662 135.143 108.755 135.085L111.47 133.518C111.528 133.488 111.592 133.473 111.658 133.473C111.723 133.473 111.787 133.488 111.845 133.518L114.191 134.876C114.293 134.929 114.283 135.027 114.191 135.09L111.475 136.657C111.415 136.689 111.348 136.706 111.28 136.706C111.212 136.706 111.146 136.689 111.086 136.657H111.1ZM131.223 134.603L133.939 133.036C133.997 133.006 134.061 132.991 134.126 132.991C134.191 132.991 134.255 133.006 134.313 133.036L136.654 134.404C136.751 134.462 136.747 134.555 136.654 134.618L133.939 136.185C133.881 136.215 133.816 136.23 133.751 136.23C133.686 136.23 133.622 136.215 133.564 136.185L131.218 134.827C131.111 134.783 131.116 134.686 131.223 134.603ZM126.084 136.112L128.8 134.545C128.857 134.516 128.92 134.501 128.985 134.501C129.049 134.501 129.112 134.516 129.17 134.545L132.761 136.642C132.858 136.701 132.853 136.798 132.761 136.856L130.045 138.423C129.988 138.453 129.923 138.469 129.858 138.469C129.793 138.469 129.729 138.453 129.671 138.423L126.06 136.341C125.948 136.292 125.977 136.195 126.084 136.131V136.112ZM135.389 131.572L138.114 130.024C138.172 129.994 138.236 129.979 138.301 129.979C138.367 129.979 138.431 129.994 138.489 130.024L141.37 131.683C141.467 131.742 141.462 131.839 141.37 131.902L138.654 133.469C138.596 133.499 138.532 133.515 138.467 133.515C138.402 133.515 138.337 133.499 138.28 133.469L135.394 131.805C135.277 131.752 135.282 131.654 135.389 131.591V131.572ZM133.175 130.292C133.117 130.322 133.052 130.337 132.987 130.337C132.922 130.337 132.858 130.322 132.8 130.292L130.454 128.934C130.352 128.88 130.357 128.783 130.454 128.72L133.17 127.153C133.228 127.123 133.292 127.107 133.357 127.107C133.422 127.107 133.487 127.123 133.544 127.153L135.895 128.511C135.992 128.569 135.987 128.666 135.895 128.725L133.175 130.292ZM121.3 137.83L124.001 136.282C124.06 136.253 124.124 136.239 124.189 136.239C124.254 136.239 124.318 136.253 124.376 136.282L128.892 138.891C128.989 138.949 128.985 139.046 128.892 139.105L126.177 140.677C126.118 140.705 126.054 140.72 125.989 140.72C125.924 140.72 125.86 140.705 125.802 140.677L121.286 138.068C121.189 138.01 121.193 137.913 121.3 137.849V137.83ZM119.047 141.008L121.763 139.47C121.821 139.44 121.885 139.424 121.95 139.424C122.015 139.424 122.08 139.44 122.138 139.47L125.028 141.139C125.126 141.197 125.121 141.295 125.028 141.358L122.313 142.925C122.254 142.954 122.19 142.969 122.125 142.969C122.06 142.969 121.996 142.954 121.938 142.925L119.047 141.256C118.935 141.188 118.94 141.09 119.047 141.027V141.008ZM107.66 115.561C107.602 115.591 107.538 115.606 107.472 115.606C107.407 115.606 107.343 115.591 107.285 115.561L104.939 114.208C104.837 114.15 104.847 114.052 104.939 113.989L107.655 112.422C107.713 112.393 107.777 112.378 107.842 112.378C107.907 112.378 107.971 112.393 108.03 112.422L110.375 113.799C110.473 113.858 110.468 113.955 110.375 114.013L107.66 115.561ZM114.526 119.527C114.468 119.556 114.404 119.571 114.339 119.571C114.274 119.571 114.21 119.556 114.152 119.527L111.801 118.174C111.704 118.116 111.709 118.018 111.801 117.955L114.517 116.388C114.575 116.359 114.639 116.344 114.704 116.344C114.769 116.344 114.833 116.359 114.891 116.388L117.237 117.741C117.339 117.799 117.329 117.897 117.237 117.96L114.526 119.527ZM129.744 128.33C129.686 128.36 129.622 128.376 129.556 128.376C129.491 128.376 129.427 128.36 129.369 128.33L127.023 126.973C126.921 126.914 126.926 126.822 127.023 126.759L129.739 125.192C129.797 125.162 129.861 125.146 129.926 125.146C129.991 125.146 130.056 125.162 130.114 125.192L132.464 126.549C132.561 126.608 132.557 126.7 132.464 126.763L129.744 128.33ZM111.091 117.571C111.033 117.599 110.97 117.614 110.906 117.614C110.842 117.614 110.778 117.599 110.721 117.571L108.37 116.218C108.273 116.159 108.278 116.062 108.37 115.999L111.086 114.432C111.144 114.402 111.208 114.386 111.273 114.386C111.338 114.386 111.403 114.402 111.461 114.432L113.806 115.785C113.908 115.843 113.899 115.94 113.806 116.004L111.091 117.571ZM117.957 121.532C117.899 121.562 117.835 121.577 117.77 121.577C117.705 121.577 117.64 121.562 117.583 121.532L115.232 120.179C115.135 120.121 115.14 120.023 115.232 119.96L117.948 118.393C118.006 118.364 118.07 118.349 118.135 118.349C118.2 118.349 118.264 118.364 118.322 118.393L120.668 119.746C120.77 119.804 120.765 119.902 120.668 119.965L117.957 121.532ZM117.164 141.285C117.222 141.256 117.286 141.241 117.351 141.241C117.416 141.241 117.48 141.256 117.539 141.285L121.15 143.363C121.247 143.421 121.242 143.519 121.15 143.582L118.434 145.149C118.376 145.179 118.312 145.194 118.247 145.194C118.182 145.194 118.117 145.179 118.059 145.149L114.449 143.066C114.346 143.008 114.356 142.91 114.449 142.847L117.164 141.285ZM122.882 124.384C122.824 124.413 122.76 124.427 122.695 124.427C122.63 124.427 122.566 124.413 122.507 124.384L120.157 123.026C120.06 122.968 120.064 122.87 120.157 122.812L122.872 121.245C122.93 121.215 122.995 121.199 123.06 121.199C123.125 121.199 123.189 121.215 123.247 121.245L125.593 122.603C125.695 122.656 125.69 122.754 125.593 122.817L122.882 124.384ZM126.313 126.33C126.255 126.36 126.191 126.376 126.126 126.376C126.06 126.376 125.996 126.36 125.938 126.33L123.588 124.973C123.49 124.914 123.495 124.817 123.588 124.758L126.303 123.191C126.361 123.162 126.425 123.146 126.491 123.146C126.556 123.146 126.62 123.162 126.678 123.191L129.024 124.549C129.126 124.603 129.121 124.7 129.024 124.763L126.313 126.33ZM53.5887 104.577C53.6466 104.547 53.7109 104.532 53.776 104.532C53.8412 104.532 53.9055 104.547 53.9634 104.577L59.7642 107.906C59.8615 107.964 59.8567 108.062 59.7642 108.125L57.0487 109.692C56.9905 109.721 56.9264 109.736 56.8614 109.736C56.7964 109.736 56.7323 109.721 56.674 109.692L50.8635 106.378C50.7613 106.32 50.7661 106.222 50.8635 106.159L53.5887 104.577ZM61.1755 108.957C61.2334 108.927 61.2977 108.912 61.3628 108.912C61.428 108.912 61.4923 108.927 61.5502 108.957L63.8958 110.31C63.998 110.368 63.9931 110.466 63.8958 110.529L61.1803 112.096C61.1221 112.125 61.058 112.14 60.993 112.14C60.928 112.14 60.8639 112.125 60.8056 112.096L58.4551 110.743C58.3578 110.685 58.3627 110.587 58.4551 110.524L61.1755 108.957ZM107.655 134.676L105.309 133.319C105.207 133.26 105.217 133.163 105.309 133.104L108.02 131.533C108.078 131.504 108.142 131.489 108.207 131.489C108.272 131.489 108.336 131.504 108.395 131.533L110.745 132.885C110.842 132.944 110.838 133.041 110.745 133.104L108.03 134.671C107.972 134.701 107.908 134.717 107.843 134.718C107.778 134.718 107.714 134.704 107.655 134.676ZM68.0372 112.918C68.0954 112.89 68.1596 112.875 68.2245 112.875C68.2895 112.875 68.3536 112.89 68.4119 112.918L70.7624 114.271C70.8597 114.33 70.8549 114.427 70.7624 114.49L68.0469 116.057C67.989 116.087 67.9247 116.103 67.8596 116.103C67.7944 116.103 67.7301 116.087 67.6722 116.057L65.3266 114.704C65.2244 114.646 65.2292 114.549 65.3266 114.485L68.0372 112.918ZM50.1578 102.597C50.2161 102.568 50.2802 102.553 50.3452 102.553C50.4102 102.553 50.4743 102.568 50.5325 102.597L52.8782 103.945C52.9804 104.003 52.9755 104.1 52.8782 104.159L50.1627 105.731C50.1044 105.759 50.0403 105.774 49.9753 105.774C49.9104 105.774 49.8463 105.759 49.788 105.731L47.4375 104.378C47.3402 104.319 47.345 104.222 47.4375 104.159L50.1578 102.597ZM44.0115 102.183L50.6055 98.3775C50.6635 98.3476 50.7277 98.332 50.7929 98.332C50.8581 98.332 50.9223 98.3476 50.9803 98.3775L53.3259 99.7352C53.4281 99.7936 53.4232 99.8909 53.3259 99.9493L46.7318 103.755C46.6739 103.785 46.6097 103.8 46.5445 103.8C46.4793 103.8 46.4151 103.785 46.3571 103.755L44.0066 102.397C43.8996 102.344 43.9044 102.246 44.0115 102.183ZM80.8603 120.325C80.9182 120.295 80.9824 120.28 81.0476 120.28C81.1128 120.28 81.1771 120.295 81.235 120.325L84.1257 121.994C84.223 122.053 84.2181 122.15 84.1257 122.208L81.4102 123.775C81.3523 123.805 81.288 123.821 81.2228 123.821C81.1576 123.821 81.0934 123.805 81.0355 123.775L78.1448 122.106C78.0475 122.048 78.0523 121.951 78.1448 121.892L80.8603 120.325ZM72.1931 115.318C72.2511 115.288 72.3153 115.272 72.3805 115.272C72.4457 115.272 72.5099 115.288 72.5678 115.318L76.1788 117.4C76.2761 117.459 76.2712 117.556 76.1788 117.615L73.4633 119.186C73.405 119.215 73.3409 119.23 73.2759 119.23C73.2109 119.23 73.1468 119.215 73.0886 119.186L69.4776 117.104C69.3803 117.045 69.3852 116.948 69.4776 116.885L72.1931 115.318ZM88.8072 124.909C88.8655 124.881 88.9296 124.866 88.9945 124.866C89.0595 124.866 89.1236 124.881 89.1819 124.909L108.507 136.063C108.604 136.122 108.599 136.219 108.507 136.282L105.791 137.849C105.733 137.878 105.669 137.893 105.604 137.893C105.539 137.893 105.475 137.878 105.416 137.849L86.0917 126.69C85.9944 126.632 85.9993 126.535 86.0917 126.471L88.8072 124.909ZM109.217 136.696C109.275 136.666 109.339 136.65 109.404 136.65C109.47 136.65 109.534 136.666 109.592 136.696L112.478 138.365C112.58 138.423 112.575 138.521 112.478 138.579L109.762 140.146C109.704 140.176 109.64 140.192 109.575 140.192C109.51 140.192 109.445 140.176 109.387 140.146L106.482 138.496C106.385 138.438 106.39 138.341 106.482 138.282L109.217 136.696ZM84.8362 122.617C84.8944 122.588 84.9585 122.574 85.0235 122.574C85.0885 122.574 85.1526 122.588 85.2109 122.617L88.0967 124.286C88.1989 124.345 88.194 124.442 88.0967 124.505L85.3812 126.072C85.3229 126.101 85.2588 126.116 85.1939 126.116C85.1289 126.116 85.0648 126.101 85.0065 126.072L82.1158 124.403C82.0136 124.35 82.0234 124.252 82.1158 124.189L84.8362 122.617ZM113.188 138.983C113.246 138.954 113.31 138.939 113.375 138.939C113.44 138.939 113.505 138.954 113.563 138.983L116.454 140.652C116.551 140.711 116.546 140.808 116.454 140.871L113.738 142.438C113.68 142.467 113.616 142.482 113.551 142.482C113.486 142.482 113.422 142.467 113.363 142.438L110.478 140.774C110.375 140.716 110.38 140.618 110.478 140.555L113.188 138.983ZM76.8893 118.023C76.9475 117.995 77.0116 117.98 77.0766 117.98C77.1416 117.98 77.2057 117.995 77.264 118.023L80.1498 119.688C80.252 119.746 80.2471 119.843 80.1498 119.907L77.4343 121.474C77.376 121.502 77.3119 121.517 77.2469 121.517C77.1819 121.517 77.1179 121.502 77.0596 121.474L74.1689 119.804C74.0667 119.746 74.0764 119.649 74.1689 119.585L76.8893 118.023ZM64.6063 110.933C64.6643 110.903 64.7285 110.887 64.7937 110.887C64.8589 110.887 64.9231 110.903 64.981 110.933L67.3267 112.286C67.4289 112.344 67.424 112.441 67.3267 112.505L64.6112 114.072C64.5529 114.101 64.4888 114.115 64.4238 114.115C64.3589 114.115 64.2947 114.101 64.2365 114.072L61.886 112.719C61.7886 112.66 61.7935 112.563 61.886 112.5L64.6063 110.933ZM57.0877 105.473L54.742 104.12C54.6398 104.061 54.6447 103.964 54.742 103.901L57.4575 102.334C57.5158 102.305 57.5799 102.29 57.6449 102.29C57.7098 102.29 57.774 102.305 57.8322 102.334L60.1827 103.692C60.28 103.75 60.2752 103.847 60.1827 103.906L57.4672 105.478C57.4083 105.507 57.3434 105.523 57.2775 105.523C57.2116 105.523 57.1466 105.507 57.0877 105.478V105.473ZM72.417 105.405L70.0665 104.047C69.9692 103.988 69.974 103.891 70.0665 103.833L72.782 102.266C72.8399 102.236 72.9041 102.22 72.9693 102.22C73.0345 102.22 73.0987 102.236 73.1567 102.266L75.5023 103.623C75.6045 103.682 75.5948 103.774 75.5023 103.838L72.7917 105.405C72.7338 105.434 72.6695 105.45 72.6043 105.45C72.5392 105.45 72.4749 105.434 72.417 105.405ZM80.2033 118.851L73.3416 114.889C73.2443 114.831 73.2491 114.734 73.3416 114.67L76.0571 113.103C76.1154 113.075 76.1795 113.06 76.2444 113.06C76.3094 113.06 76.3735 113.075 76.4318 113.103L83.2935 117.069C83.3908 117.123 83.386 117.22 83.2935 117.284L80.578 118.851C80.5182 118.877 80.4529 118.888 80.3877 118.884C80.3225 118.88 80.2593 118.86 80.2033 118.826V118.851ZM60.8932 107.478C60.835 107.506 60.7708 107.521 60.7059 107.521C60.6409 107.521 60.5768 107.506 60.5185 107.478L58.1729 106.125C58.0707 106.066 58.0756 105.969 58.1729 105.906L60.8884 104.339C60.9463 104.309 61.0105 104.293 61.0757 104.293C61.1409 104.293 61.2051 104.309 61.2631 104.339L63.6136 105.692C63.7109 105.75 63.706 105.847 63.6136 105.911L60.8932 107.478ZM64.3971 105.244L62.0514 103.891C61.9492 103.833 61.9541 103.735 62.0514 103.672L64.7669 102.105C64.8252 102.076 64.8893 102.061 64.9543 102.061C65.0193 102.061 65.0834 102.076 65.1416 102.105L67.4921 103.463C67.5895 103.521 67.5846 103.619 67.4921 103.677L64.7766 105.249C64.7155 105.274 64.6493 105.284 64.5834 105.279C64.5175 105.274 64.4537 105.254 64.3971 105.22V105.244ZM83.6341 120.817L81.2885 119.459C81.1863 119.401 81.1961 119.308 81.2885 119.245L84.004 117.678C84.0619 117.648 84.1262 117.632 84.1914 117.632C84.2565 117.632 84.3208 117.648 84.3787 117.678L86.7389 119.031C86.8411 119.089 86.8314 119.182 86.7389 119.245L84.0235 120.812C83.9603 120.848 83.8887 120.866 83.816 120.866C83.7433 120.865 83.6721 120.844 83.6098 120.807L83.6341 120.817ZM68.48 111.843C68.4218 111.872 68.3576 111.887 68.2927 111.887C68.2277 111.887 68.1636 111.872 68.1053 111.843L65.7548 110.49C65.6575 110.432 65.6623 110.334 65.7548 110.271L68.4703 108.704C68.5286 108.675 68.5927 108.66 68.6576 108.66C68.7226 108.66 68.7867 108.675 68.845 108.704L71.1906 110.062C71.2928 110.12 71.288 110.218 71.1906 110.276L68.48 111.843ZM100.793 130.71L98.4476 129.357C98.3454 129.299 98.3503 129.202 98.4476 129.138L101.163 127.571C101.221 127.543 101.285 127.528 101.35 127.528C101.415 127.528 101.48 127.543 101.538 127.571L103.888 128.924C103.986 128.983 103.981 129.08 103.888 129.143L101.173 130.71C101.114 130.74 101.049 130.755 100.983 130.755C100.917 130.755 100.852 130.74 100.793 130.71ZM97.3624 128.73L95.0119 127.377C94.9146 127.318 94.9194 127.221 95.0119 127.158L97.7225 125.591C97.7805 125.561 97.8447 125.545 97.9099 125.545C97.9751 125.545 98.0393 125.561 98.0972 125.591L100.448 126.944C100.545 127.002 100.54 127.099 100.448 127.163L97.7323 128.73C97.6746 128.757 97.6114 128.772 97.5473 128.772C97.4833 128.772 97.42 128.757 97.3624 128.73ZM104.224 132.691L101.878 131.338C101.776 131.28 101.781 131.182 101.878 131.119L104.589 129.552C104.647 129.523 104.711 129.508 104.776 129.508C104.841 129.508 104.906 129.523 104.964 129.552L107.314 130.905C107.412 130.963 107.407 131.061 107.314 131.124L104.599 132.691C104.541 132.721 104.477 132.736 104.411 132.736C104.346 132.736 104.282 132.721 104.224 132.691ZM90.5007 124.768L88.1502 123.415C88.0529 123.357 88.0578 123.26 88.1502 123.196L90.8657 121.629C90.924 121.601 90.9881 121.586 91.0531 121.586C91.118 121.586 91.1821 121.601 91.2404 121.629L93.586 122.987C93.6882 123.046 93.6834 123.143 93.586 123.201L90.8706 124.768C90.8133 124.797 90.7499 124.812 90.6856 124.812C90.6214 124.812 90.558 124.797 90.5007 124.768ZM93.9072 126.749L91.5567 125.396C91.4594 125.338 91.4643 125.24 91.5567 125.177L94.316 123.61C94.3739 123.58 94.4382 123.565 94.5034 123.565C94.5686 123.565 94.6328 123.58 94.6907 123.61L97.0364 124.963C97.1386 125.021 97.1337 125.119 97.0364 125.177L94.3209 126.749C94.2607 126.78 94.194 126.796 94.1262 126.796C94.0585 126.796 93.9917 126.78 93.9316 126.749H93.9072ZM87.0455 122.788L84.695 121.43C84.5977 121.376 84.6026 121.279 84.695 121.216L87.4105 119.649C87.4685 119.619 87.5327 119.603 87.5979 119.603C87.6631 119.603 87.7273 119.619 87.7852 119.649L90.1698 120.977C90.272 121.036 90.2623 121.133 90.1698 121.191L87.4592 122.758C87.4019 122.795 87.3362 122.817 87.2682 122.822C87.2002 122.828 87.132 122.816 87.0699 122.788H87.0455ZM71.3464 93.4769C71.2884 93.5068 71.2242 93.5224 71.159 93.5224C71.0938 93.5224 71.0296 93.5068 70.9716 93.4769L68.6212 92.1192C68.5238 92.0657 68.5287 91.9683 68.6212 91.9051L69.3414 91.4866C69.3997 91.4578 69.4638 91.4429 69.5287 91.4429C69.5937 91.4429 69.6578 91.4578 69.7161 91.4866L72.0666 92.8394C72.1639 92.8978 72.1591 92.9952 72.0666 93.0584L71.3464 93.4769ZM88.2281 104.378C88.1701 104.408 88.1059 104.423 88.0407 104.423C87.9755 104.423 87.9113 104.408 87.8534 104.378L85.5077 103.025C85.4055 102.967 85.4104 102.869 85.5077 102.806L88.2232 101.239C88.2815 101.21 88.3456 101.195 88.4106 101.195C88.4756 101.195 88.5397 101.21 88.5979 101.239L90.9484 102.592C91.0458 102.65 91.0409 102.748 90.9484 102.811L88.2281 104.378ZM81.3664 100.417C81.3081 100.445 81.244 100.46 81.179 100.46C81.1141 100.46 81.0499 100.445 80.9917 100.417L78.6412 99.0636C78.5438 99.0052 78.5487 98.9079 78.6412 98.8446L81.3567 97.2776C81.4146 97.2478 81.4788 97.2322 81.544 97.2322C81.6092 97.2322 81.6734 97.2478 81.7314 97.2776L84.0965 98.6305C84.1987 98.6889 84.1938 98.7862 84.0965 98.8495L81.3664 100.417ZM92.4181 106.796C92.3598 106.825 92.2957 106.84 92.2307 106.84C92.1658 106.84 92.1016 106.825 92.0434 106.796L89.6978 105.439C89.5956 105.38 89.6004 105.283 89.6978 105.225L92.4132 103.653C92.4715 103.624 92.5356 103.609 92.6006 103.609C92.6656 103.609 92.7297 103.624 92.7879 103.653L95.1384 105.006C95.2358 105.064 95.2309 105.161 95.1384 105.225L92.4181 106.796ZM84.7972 102.417C84.739 102.445 84.6749 102.46 84.6099 102.46C84.5449 102.46 84.4808 102.445 84.4225 102.417L82.072 101.064C81.9747 101.005 81.9796 100.908 82.072 100.845L84.7875 99.2778C84.8458 99.249 84.9099 99.234 84.9749 99.234C85.0398 99.234 85.104 99.249 85.1622 99.2778L87.5079 100.631C87.6101 100.689 87.6052 100.786 87.5079 100.85L84.7972 102.417ZM99.3041 110.758C99.2462 110.788 99.182 110.803 99.1168 110.803C99.0516 110.803 98.9873 110.788 98.9294 110.758L96.5838 109.4C96.4816 109.342 96.4913 109.244 96.5838 109.186L99.2944 107.619C99.3523 107.589 99.4166 107.573 99.4818 107.573C99.5469 107.573 99.6112 107.589 99.6691 107.619L102.02 108.977C102.117 109.03 102.112 109.127 102.02 109.191L99.3041 110.758ZM95.8733 108.777C95.815 108.806 95.7509 108.821 95.6859 108.821C95.6209 108.821 95.5568 108.806 95.4986 108.777L93.1529 107.419C93.0507 107.361 93.0556 107.264 93.1529 107.205L95.8635 105.638C95.9215 105.608 95.9857 105.593 96.0509 105.593C96.1161 105.593 96.1803 105.608 96.2383 105.638L98.5888 106.996C98.6861 107.049 98.6812 107.147 98.5888 107.21L95.8733 108.777ZM78.2324 97.4431C78.1741 97.4719 78.11 97.4868 78.045 97.4868C77.9801 97.4868 77.9159 97.4719 77.8577 97.4431L75.5072 96.0902C75.4099 96.0318 75.4147 95.9345 75.5072 95.8712L76.2323 95.4527C76.2906 95.424 76.3547 95.409 76.4196 95.409C76.4846 95.409 76.5487 95.424 76.607 95.4527L78.9526 96.8056C79.0548 96.864 79.0451 96.9613 78.9526 97.0246L78.2324 97.4431ZM67.935 91.4963C67.8779 91.5261 67.8145 91.5417 67.7501 91.5417C67.6857 91.5417 67.6222 91.5261 67.5651 91.4963L65.2146 90.1386C65.1173 90.0802 65.1222 89.9877 65.2146 89.9244L65.9349 89.5059C65.9928 89.476 66.057 89.4604 66.1222 89.4604C66.1874 89.4604 66.2517 89.476 66.3096 89.5059L68.6601 90.8588C68.7574 90.9172 68.7525 91.0145 68.6601 91.0778L67.935 91.4963ZM62.2364 94.7909C62.1781 94.8196 62.114 94.8346 62.049 94.8346C61.984 94.8346 61.9199 94.8196 61.8616 94.7909L59.5112 93.4331C59.4138 93.3747 59.4187 93.2774 59.5112 93.219L62.2266 91.6472C62.2849 91.6184 62.349 91.6034 62.414 91.6034C62.479 91.6034 62.5431 91.6184 62.6013 91.6472L64.947 93C65.0492 93.0584 65.0394 93.1558 64.947 93.219L62.2364 94.7909ZM53.6568 103.497L51.3063 102.139C51.209 102.086 51.2139 101.988 51.3063 101.925L54.0218 100.358C54.0801 100.329 54.1442 100.314 54.2092 100.314C54.2741 100.314 54.3382 100.329 54.3965 100.358L56.7421 101.716C56.8443 101.774 56.8395 101.872 56.7421 101.93L54.0267 103.497C53.9693 103.526 53.906 103.541 53.8417 103.541C53.7775 103.541 53.7141 103.526 53.6568 103.497ZM74.8015 95.4625C74.7433 95.4912 74.6792 95.5062 74.6142 95.5062C74.5492 95.5062 74.4851 95.4912 74.4268 95.4625L72.0763 94.1096C71.979 94.0512 71.9839 93.9539 72.0763 93.8906L72.8014 93.4721C72.8597 93.4433 72.9238 93.4284 72.9888 93.4284C73.0538 93.4284 73.1179 93.4433 73.1761 93.4721L75.5218 94.825C75.6191 94.8833 75.6142 94.9807 75.5218 95.0439L74.8015 95.4625ZM102.735 112.738C102.677 112.768 102.613 112.784 102.548 112.784C102.482 112.784 102.418 112.768 102.36 112.738L100.015 111.381C99.9173 111.322 99.9222 111.23 100.015 111.166L102.73 109.599C102.788 109.57 102.852 109.554 102.917 109.554C102.983 109.554 103.047 109.57 103.105 109.599L105.45 110.957C105.548 111.016 105.543 111.108 105.45 111.171L102.735 112.738Z" fill="#455A64"/>
<path d="M88.7832 134.068L63.0883 119.23L47.2724 128.36L72.9721 143.198L88.7832 134.068Z" fill="#263238"/>
<path d="M145.9 59.2999L69.3219 15.0882C67.8279 14.222 66.6016 14.9325 66.6016 16.6601V75.9675C66.6261 76.4062 66.7534 76.8329 66.9732 77.2133C67.193 77.5937 67.4991 77.9171 67.8669 78.1574L146.387 123.493C147.083 123.892 147.652 123.566 147.652 122.763V62.3317C147.617 61.7247 147.441 61.1342 147.136 60.6077C146.832 60.0813 146.409 59.6334 145.9 59.2999Z" fill="#F5F5F5"/>
<path d="M66.5773 18.0815V16.6605C66.5773 14.9329 67.8036 14.2273 69.2976 15.0886L145.9 59.3004C146.409 59.6338 146.832 60.0817 147.136 60.6082C147.441 61.1347 147.617 61.7251 147.652 62.3322V64.8773L66.5773 18.0815Z" fill="#00B87C"/>
<path d="M78.0036 21.3172C78.277 21.4951 78.5046 21.735 78.6678 22.0175C78.831 22.2999 78.9252 22.6168 78.9429 22.9426C78.9429 23.5411 78.5244 23.7845 78.0036 23.4827C77.7313 23.3053 77.5047 23.066 77.3423 22.7844C77.1799 22.5028 77.0864 22.1868 77.0693 21.8622C77.0693 21.2636 77.4878 21.0203 78.0036 21.3172Z" fill="white"/>
<path d="M74.2858 19.1711C74.5583 19.3496 74.7849 19.5898 74.9473 19.8722C75.1096 20.1546 75.2031 20.4712 75.2202 20.7965C75.2202 21.3951 74.8017 21.6335 74.2858 21.3367C74.0125 21.1588 73.7849 20.9188 73.6217 20.6364C73.4585 20.354 73.3643 20.037 73.3466 19.7113C73.3466 19.1127 73.7651 18.8694 74.2858 19.1711Z" fill="white"/>
<path d="M70.5632 17.0202C70.8358 17.199 71.0627 17.4391 71.2258 17.7213C71.3889 18.0036 71.4837 18.3201 71.5024 18.6456C71.5024 19.2441 71.0791 19.4875 70.5632 19.1857C70.2902 19.0086 70.0629 18.7695 69.8997 18.4879C69.7364 18.2063 69.642 17.8902 69.624 17.5652C69.624 16.9666 70.0474 16.7233 70.5632 17.0202Z" fill="white"/>
<path d="M128.743 93.9135L131.723 92.1932L139.02 104.832L136.04 106.553L128.743 93.9135Z" fill="#37474F"/>
<path d="M128.737 93.9096L130.225 93.0507L137.522 105.69L136.034 106.549L128.737 93.9096Z" fill="#263238"/>
<path d="M147.02 129.513C148.378 131.873 154.806 128.126 153.453 125.8L136.688 99.6525C136.643 99.5816 136.572 99.531 136.491 99.511C136.409 99.4911 136.323 99.5034 136.25 99.5454L132.883 101.492C132.81 101.533 132.756 101.601 132.733 101.681C132.709 101.76 132.718 101.846 132.756 101.92L147.02 129.513Z" fill="#00B87C"/>
<path opacity="0.1" d="M147.02 129.513L132.761 101.92C132.723 101.846 132.714 101.76 132.738 101.681C132.761 101.601 132.815 101.533 132.888 101.492L134.421 100.606L150.767 129.664C149.278 130.399 147.633 130.579 147.02 129.513Z" fill="#3A3A3A"/>
<path d="M97.7229 67.9573C97.7229 67.7577 97.7229 67.5631 97.7521 67.3684C97.7813 67.1738 97.7521 66.984 97.7959 66.7942C97.8397 66.6044 97.7959 66.5411 97.8349 66.4146C97.8689 66.0837 97.9176 65.7576 97.9711 65.4413C97.9955 65.3002 98.0198 65.1542 98.049 65.0131C98.0782 64.8719 98.1025 64.7454 98.1317 64.614C98.2144 64.2539 98.302 63.9035 98.4042 63.5677C98.4578 63.4071 98.5064 63.2465 98.56 63.0811C98.5702 63.0575 98.5784 63.0331 98.5843 63.0081C98.6427 62.8524 98.6962 62.7015 98.7546 62.5555C98.813 62.4095 98.8909 62.2148 98.9687 62.0689C99.0466 61.9229 99.0758 61.8304 99.1391 61.7136C99.1744 61.626 99.2167 61.5413 99.2656 61.4605C99.3143 61.3583 99.3678 61.2562 99.4262 61.1588C99.4846 61.0615 99.4505 61.1102 99.4651 61.0907C99.4797 61.0712 99.5673 60.9155 99.6208 60.8279C99.6744 60.7403 99.6938 60.716 99.7279 60.6624C99.9773 60.2696 100.257 59.897 100.565 59.548L100.721 59.3728L100.852 59.2366C100.906 59.1782 100.964 59.1246 101.022 59.0662C101.175 58.9056 101.338 58.7545 101.509 58.6137C101.592 58.5407 101.679 58.4725 101.767 58.4093L102.035 58.2146C102.174 58.1127 102.318 58.0184 102.468 57.9324L102.585 57.8594H102.609L109.505 53.8786L109.544 53.8543C110.867 53.1165 112.36 52.7389 113.875 52.7593C116.133 52.7593 118.683 53.499 121.384 55.0563C130.659 60.4094 138.183 73.4417 138.183 84.1577C138.183 89.5108 136.314 93.2579 133.292 95.0196H133.263L126.362 98.9955H126.333L126.25 99.0393C126.121 99.1157 125.987 99.1856 125.851 99.2485C125.686 99.3313 125.515 99.4043 125.364 99.4724C125.214 99.5405 125.058 99.5941 124.902 99.6427L124.654 99.7157C124.567 99.749 124.477 99.7751 124.386 99.7936C124.297 99.8209 124.206 99.8436 124.114 99.8617C124.048 99.881 123.982 99.8956 123.914 99.9055C123.797 99.9299 123.671 99.9542 123.549 99.9688C123.522 99.9734 123.494 99.9734 123.466 99.9688C123.32 99.9947 123.174 100.014 123.028 100.027C120.527 100.29 117.617 99.5843 114.502 97.7886C105.222 92.4355 97.6986 79.3983 97.6986 68.6872C97.7229 68.4634 97.7229 68.2103 97.7229 67.9573ZM108.979 60.3802C108.615 61.7118 108.436 63.0875 108.449 64.468C108.449 73.9187 115.364 85.8804 123.535 90.6203C124.729 91.3303 126.019 91.8662 127.364 92.2117C127.727 90.878 127.905 89.501 127.895 88.119C127.895 78.6683 120.98 66.7066 112.809 61.9667C111.619 61.2593 110.334 60.7251 108.994 60.3802H108.979Z" fill="#00B87C"/>
<path opacity="0.1" d="M126.644 98.8592L133.345 94.9952C136.367 93.2287 138.236 89.4718 138.236 84.1382C138.236 79.3593 136.737 74.123 134.26 69.3149L127.359 73.286C129.841 78.094 131.335 83.3303 131.335 88.1092C131.335 93.3455 129.554 97.0488 126.644 98.8592Z" fill="#3A3A3A"/>
<path opacity="0.4" d="M97.7222 67.9572C97.7222 67.7577 97.7222 67.563 97.7514 67.3684C97.7806 67.1737 97.7514 66.9839 97.7952 66.7941C97.839 66.6043 97.7952 66.5411 97.8342 66.4145C97.8682 66.0836 97.9169 65.7576 97.9704 65.4413C97.9948 65.3001 98.0191 65.1541 98.0483 65.013C98.0775 64.8719 98.1018 64.7453 98.131 64.614C98.2138 64.2538 98.3014 63.9035 98.4035 63.5677C98.4571 63.4071 98.5057 63.2465 98.5593 63.081C98.5696 63.0575 98.5777 63.033 98.5836 63.008C98.642 62.8523 98.6955 62.7014 98.7539 62.5554C98.8123 62.4095 98.8902 62.2148 98.9681 62.0688C99.0459 61.9228 99.0751 61.8303 99.1384 61.7136C99.1737 61.6259 99.216 61.5413 99.2649 61.4605C99.3136 61.3583 99.3671 61.2561 99.4255 61.1588C99.4839 61.0615 99.4498 61.1101 99.4644 61.0906C99.479 61.0712 99.5666 60.9155 99.6202 60.8279C99.6737 60.7403 99.6932 60.7159 99.7272 60.6624C99.9766 60.2696 100.256 59.897 100.564 59.548L100.72 59.3728L100.851 59.2365C100.905 59.1781 100.963 59.1246 101.022 59.0662C101.175 58.9056 101.337 58.7544 101.508 58.6136C101.591 58.5406 101.679 58.4725 101.766 58.4092L102.034 58.2146C102.173 58.1126 102.318 58.0184 102.467 57.9323C105.518 56.0782 109.767 56.2972 114.492 59.0175C123.772 64.3706 131.296 77.403 131.296 88.1189C131.296 93.545 129.349 97.336 126.259 99.0587C126.13 99.1351 125.997 99.205 125.86 99.268C125.695 99.3507 125.524 99.4237 125.373 99.4918C125.223 99.56 125.067 99.6135 124.911 99.6622L124.663 99.7351C124.576 99.7684 124.486 99.7945 124.395 99.813C124.306 99.8403 124.215 99.863 124.123 99.8811C124.057 99.9004 123.991 99.915 123.923 99.9249C123.806 99.9493 123.68 99.9736 123.558 99.9882C123.531 99.9928 123.503 99.9928 123.476 99.9882C123.33 100.014 123.184 100.034 123.038 100.047C120.536 100.309 117.626 99.6038 114.512 97.808C105.231 92.4549 97.7076 79.4177 97.7076 68.7066C97.7222 68.4633 97.7222 68.2103 97.7222 67.9572ZM116.215 94.8736C118.298 96.0756 120.303 96.7082 122.016 96.7082C125.232 96.7082 126.712 94.5134 127.369 92.2116C127.731 90.8779 127.91 89.5009 127.899 88.1189C127.899 78.6683 120.984 66.7065 112.813 61.9666C111.619 61.258 110.329 60.7237 108.983 60.3801C108.346 60.2223 107.693 60.139 107.037 60.132C101.718 60.132 101.148 66.1372 101.148 68.7212C101.129 78.1524 108.044 90.1482 116.215 94.8736Z" fill="white"/>
<path opacity="0.1" d="M101.129 68.7214C101.129 78.172 108.04 90.1337 116.215 94.8737C118.298 96.0757 120.303 96.7083 122.016 96.7083C125.233 96.7083 126.712 94.5136 127.369 92.2117C126.023 91.8663 124.734 91.3304 123.539 90.6204C115.354 85.8951 108.453 73.9187 108.453 64.4681C108.441 63.0875 108.619 61.7119 108.984 60.3803C108.347 60.2224 107.693 60.1391 107.037 60.1321C101.703 60.1467 101.129 66.1373 101.129 68.7214Z" fill="#3A3A3A"/>
<path opacity="0.7" d="M104.049 67.0715C104.049 76.5222 110.959 88.4839 119.135 93.2238C121.218 94.4259 123.223 95.0585 124.936 95.0585C125.277 95.0593 125.617 95.0317 125.953 94.9758C126.61 94.1633 127.09 93.2215 127.359 92.2116C127.722 90.8779 127.9 89.501 127.89 88.1189C127.89 78.6683 120.974 66.7066 112.804 61.9666C111.609 61.258 110.32 60.7237 108.974 60.3802C108.337 60.2223 107.684 60.139 107.027 60.132C106.685 60.1311 106.343 60.1588 106.005 60.2147C104.321 62.1954 104.049 65.3731 104.049 67.0715Z" fill="white"/>
<path d="M92.2866 57.2268V68.0011C92.2866 68.809 91.7173 69.135 91.0214 68.7311L20.4091 27.9648C20.0414 27.7245 19.7353 27.4011 19.5155 27.0207C19.2957 26.6403 19.1684 26.2136 19.1439 25.7749V14.986C19.1439 14.1782 19.7132 13.8521 20.4091 14.2561L91.0214 55.0223C91.3908 55.2644 91.6979 55.5902 91.9177 55.9732C92.1376 56.3563 92.2639 56.7858 92.2866 57.2268Z" fill="#E6E6E6"/>
<path d="M91.0214 55.0222L78.4464 47.7664V61.4606L91.0214 68.7164C91.7173 69.1203 92.2866 68.7943 92.2866 67.9865V57.2267C92.2639 56.7857 92.1376 56.3562 91.9177 55.9731C91.6979 55.5901 91.3908 55.2643 91.0214 55.0222Z" fill="#00B87C"/>
<path d="M82.6074 53.7425C83.4006 53.285 84.4031 53.358 85.4299 53.9517C86.4057 54.5769 87.2175 55.4267 87.7975 56.43C88.3775 57.4333 88.7087 58.5609 88.7634 59.7185C88.7978 60.4687 88.5611 61.2062 88.0967 61.7964L89.4496 64.1129C89.5377 64.2786 89.5591 64.4718 89.5093 64.6527C89.4596 64.8337 89.3424 64.9888 89.182 65.0862C89.0704 65.1488 88.9449 65.1823 88.817 65.1835C88.6888 65.1836 88.5628 65.1499 88.4517 65.0858C88.3407 65.0217 88.2484 64.9295 88.1843 64.8185L86.8461 62.5021C86.7016 62.5292 86.5551 62.5438 86.4081 62.5459C85.8107 62.535 85.2266 62.3672 84.7145 62.0592C83.7405 61.4326 82.9303 60.5824 82.3513 59.5793C81.7723 58.5762 81.4413 57.4493 81.3859 56.2925C81.3713 55.1099 81.8093 54.2048 82.6074 53.7425ZM85.4299 60.7988C85.6009 60.9827 85.8291 61.1032 86.0774 61.1406C86.3257 61.178 86.5793 61.13 86.7969 61.0046C87.0144 60.8792 87.1829 60.6837 87.2749 60.4501C87.367 60.2165 87.377 59.9585 87.3035 59.7185C87.2468 58.818 86.9822 57.943 86.5304 57.1619C86.0787 56.3809 85.4522 55.7152 84.6999 55.217C84.4081 55.0311 84.0724 54.9254 83.7267 54.9104C83.5841 54.905 83.4427 54.9387 83.3179 55.0077C83.1347 55.1643 82.9941 55.3646 82.909 55.5901C82.8239 55.8155 82.7972 56.0588 82.8312 56.2973C82.8874 57.1974 83.1513 58.0722 83.6021 58.8531C84.053 59.6341 84.6786 60.3001 85.4299 60.7988Z" fill="white"/>
</svg>
