<svg width="27" height="28" viewBox="0 0 27 28" fill="none" xmlns="http://www.w3.org/2000/svg">
<path d="M12.3879 7.06262C12.8976 7.76293 13.1524 8.59824 13.1524 9.5753C13.1524 10.5794 12.8976 11.3894 12.3812 12.0002C12.0909 12.3394 11.6674 12.6533 11.1071 12.9351C11.9576 13.2422 12.5989 13.7266 13.0359 14.3881C13.4679 15.0496 13.6856 15.8545 13.6856 16.7995C13.6856 17.7749 13.4376 18.6507 12.9414 19.4236C12.6276 19.9349 12.2327 20.3686 11.7602 20.7179C11.2018 21.1313 10.5576 21.4139 9.87525 21.5447C9.14962 21.6932 8.36494 21.7658 7.51781 21.7658H0V5.30762H8.06287C10.098 5.33799 11.5374 5.92187 12.3879 7.06262ZM3.32606 8.16624V11.7977H7.38281C8.10506 11.7977 8.694 11.6611 9.14794 11.3894C9.5985 11.1177 9.82631 10.6351 9.82631 9.94487C9.82631 9.17537 9.52762 8.6708 8.93025 8.42274C8.41387 8.25231 7.75575 8.16624 6.95756 8.16624H3.32606ZM3.32606 14.5214V18.9106H7.37775C8.10169 18.9106 8.667 18.8144 9.06862 18.6203C9.801 18.2592 10.1655 17.5774 10.1655 16.5649C10.1655 15.706 9.81281 15.1187 9.10406 14.7981C8.70581 14.6209 8.14894 14.5264 7.43344 14.5214H3.32606ZM23.7718 9.84362C24.6341 10.2233 25.3429 10.8241 25.9014 11.6442C26.4111 12.3681 26.7384 13.2068 26.8869 14.1602C26.9747 14.7171 27.0084 15.5254 26.9949 16.5767H18.0056C18.0596 17.7968 18.4849 18.6541 19.2982 19.1434C19.791 19.4489 20.3816 19.6024 21.0786 19.6024C21.8109 19.6024 22.4083 19.4168 22.8673 19.0456C23.1204 18.8431 23.3415 18.5646 23.5322 18.2086H26.8262C26.7384 18.9291 26.3385 19.6632 25.6314 20.4091C24.5261 21.5903 22.9787 22.1826 20.9891 22.1826C19.3455 22.1826 17.8976 21.6848 16.6438 20.6858C15.3849 19.6885 14.7589 18.0634 14.7589 15.814C14.7589 13.7046 15.3259 12.0863 16.4582 10.9607C17.5939 9.83855 19.062 9.27324 20.8693 9.27324C21.9459 9.27155 22.9129 9.46224 23.7718 9.84362ZM18.9472 12.5926C18.4916 13.0566 18.2048 13.6844 18.0866 14.4758H23.6469C23.5879 13.6304 23.2993 12.9908 22.788 12.5504C22.2699 12.1133 21.6337 11.8956 20.8727 11.8956C20.0475 11.8973 19.4029 12.1302 18.9472 12.5926ZM17.253 8.12405H24.4029V6.07543H17.253V8.12405Z" fill="#1976D2"/>
</svg>
