<svg width="25" height="25" viewBox="0 0 25 25" fill="none" xmlns="http://www.w3.org/2000/svg">
<path d="M20.3125 0H15.625L13.3219 4.27656C13.255 4.40073 13.1558 4.50449 13.0348 4.57684C12.9138 4.64919 12.7754 4.68743 12.6344 4.6875H4.6875V10.9375H8.42813C8.56326 10.9376 8.69606 10.9727 8.81356 11.0394C8.93106 11.1062 9.02924 11.2022 9.09851 11.3183C9.16778 11.4343 9.20577 11.5663 9.20877 11.7014C9.21177 11.8365 9.17968 11.9701 9.11563 12.0891L4.6875 20.3125V25H9.375L11.6781 20.7234C11.745 20.5993 11.8442 20.4955 11.9652 20.4232C12.0862 20.3508 12.2246 20.3126 12.3656 20.3125H20.3125V14.0625H16.5719C16.4367 14.0624 16.3039 14.0273 16.1864 13.9606C16.0689 13.8938 15.9708 13.7978 15.9015 13.6817C15.8322 13.5657 15.7942 13.4337 15.7912 13.2986C15.7882 13.1635 15.8203 13.0299 15.8844 12.9109L20.3125 4.6875V0Z" fill="#4CAF50"/>
</svg>
