<svg width="24" height="25" viewBox="0 0 24 25" fill="none" xmlns="http://www.w3.org/2000/svg">
<g clip-path="url(#clip0)">
<path d="M12 23.4135C18.2132 23.4135 23.25 18.3767 23.25 12.1635C23.25 5.95025 18.2132 0.913452 12 0.913452C5.7868 0.913452 0.75 5.95025 0.75 12.1635C0.75 18.3767 5.7868 23.4135 12 23.4135Z" fill="#EC407A"/>
<path d="M12 0.244507C5.3835 0.244507 0 5.62801 0 12.2445C0 18.861 5.3835 24.2445 12 24.2445C18.6165 24.2445 24 18.861 24 12.2445C24 5.62801 18.6165 0.244507 12 0.244507ZM22.4955 12.3345C20.005 11.667 17.3936 11.5858 14.8665 12.0975C14.5276 11.2523 14.1615 10.4184 13.7685 9.59701C16.036 8.53544 18.1117 7.10501 19.911 5.36401C21.5797 7.26775 22.4998 9.71297 22.5 12.2445C22.5 12.2745 22.4955 12.303 22.4955 12.3345ZM18.8505 4.30501C17.172 5.93299 15.2346 7.27071 13.1175 8.26351C11.9915 6.11155 10.6816 4.06093 9.2025 2.13451C10.113 1.87838 11.0541 1.74718 12 1.74451C14.5175 1.74411 16.9504 2.65345 18.8505 4.30501ZM7.7205 2.66551C9.23643 4.59505 10.5744 6.65798 11.718 8.82901C8.53727 10.0505 5.10823 10.4844 1.7235 10.0935C2.06728 8.4705 2.78969 6.95168 3.83185 5.66084C4.87401 4.37001 6.20642 3.34368 7.7205 2.66551ZM1.5 12.2445C1.5 12.0195 1.5195 11.799 1.5345 11.5785C2.4225 11.6835 3.3105 11.7525 4.1955 11.7525C7.0185 11.7525 9.792 11.2005 12.3915 10.188C12.7515 10.938 13.0905 11.6985 13.404 12.4695C9.64264 13.5953 6.39387 16.0019 4.221 19.272C2.47146 17.3495 1.50131 14.8439 1.5 12.2445ZM5.3175 20.337C7.3126 17.2045 10.3785 14.9041 13.944 13.8645C14.8965 16.4856 15.5761 19.198 15.972 21.9585C14.2163 22.6817 12.2968 22.9128 10.4196 22.6271C8.54244 22.3414 6.77857 21.5497 5.3175 20.337ZM17.379 21.2445C16.9707 18.6123 16.3138 16.0247 15.417 13.5165C17.7271 13.0869 20.1054 13.1989 22.365 13.8435C22.1281 15.3675 21.5586 16.8206 20.6968 18.0997C19.8351 19.3788 18.7024 20.4525 17.379 21.2445Z" fill="#C2185B"/>
</g>
<defs>
<clipPath id="clip0">
<rect width="24" height="24" fill="white" transform="translate(0 0.244507)"/>
</clipPath>
</defs>
</svg>
