<svg width="21" height="31" viewBox="0 0 21 31" fill="none" xmlns="http://www.w3.org/2000/svg">
<g clip-path="url(#clip0)">
<path d="M5.26928 30.9514C8.11128 30.9403 10.4088 28.6248 10.3977 25.7828L10.3776 20.6343L5.2291 20.6543C2.38711 20.6654 0.0895667 22.981 0.100656 25.823C0.111746 28.665 2.42729 30.9625 5.26928 30.9514Z" fill="#0ACF83"/>
<path d="M0.0601291 15.526C0.0490394 12.684 2.34658 10.3684 5.18858 10.3574L10.3371 10.3373L10.3773 20.6343L5.22876 20.6544C2.38676 20.6655 0.0712188 18.368 0.0601291 15.526Z" fill="#A259FF"/>
<path d="M0.02009 5.22886C0.00900033 2.38687 2.30654 0.0713219 5.14854 0.0602323L10.2971 0.0401422L10.3373 10.3372L5.18872 10.3573C2.34672 10.3684 0.0311797 8.07085 0.02009 5.22886Z" fill="#F24E1E"/>
<path d="M10.2974 0.0401611L15.4459 0.0200711C18.2879 0.00898142 20.6034 2.30653 20.6145 5.14852C20.6256 7.99051 18.3281 10.3061 15.4861 10.3171L10.3375 10.3372L10.2974 0.0401611Z" fill="#FF7262"/>
<path d="M20.6546 15.4455C20.6657 18.2875 18.3681 20.6031 15.5261 20.6141C12.6841 20.6252 10.3686 18.3277 10.3575 15.4857C10.3464 12.6437 12.6439 10.3282 15.4859 10.3171C18.3279 10.306 20.6435 12.6035 20.6546 15.4455Z" fill="#1ABCFE"/>
</g>
<defs>
<clipPath id="clip0">
<rect width="20.5943" height="30.8915" fill="white" transform="translate(0 0.0803223) rotate(-0.223572)"/>
</clipPath>
</defs>
</svg>
