<svg width="33" height="33" viewBox="0 0 33 33" fill="none" xmlns="http://www.w3.org/2000/svg">
<g clip-path="url(#clip0)">
<path d="M15.973 0.976735C7.15248 1.01115 0.0280196 8.21973 0.0625845 17.0778C0.0902359 24.1641 4.69042 30.1584 11.0453 32.2543C11.8441 32.3997 12.1353 31.9021 12.1337 31.4785C12.1322 31.0961 12.1123 29.8327 12.1003 28.4926C7.6604 29.48 6.71157 26.6212 6.71157 26.6212C5.9777 24.7702 4.9288 24.2812 4.9288 24.2812C3.47575 23.2915 5.03431 23.3059 5.03431 23.3059C6.63865 23.4127 7.48923 24.9491 7.48923 24.9491C8.9235 27.3955 11.2328 26.6776 12.1427 26.2642C12.282 25.2271 12.6932 24.5178 13.1484 24.1156C9.59901 23.7239 5.8641 22.3632 5.84012 16.2176C5.83329 14.4665 6.45165 13.0333 7.46903 11.9061C7.30161 11.5027 6.74855 9.8737 7.6072 7.661C7.6072 7.661 8.94687 7.22473 12.0074 9.28794C13.2801 8.92761 14.6458 8.7441 16.0033 8.73266C17.3607 8.73351 18.729 8.90622 20.0068 9.25672C23.0474 7.16983 24.3886 7.59564 24.3886 7.59564C25.2666 9.80132 24.726 11.4349 24.5618 11.8394C25.5903 12.9586 26.2156 14.387 26.2224 16.1381C26.2464 22.2983 22.5151 23.6693 18.9598 24.0802C19.5346 24.5757 20.0489 25.5498 20.0548 27.0462C20.0631 29.1921 20.0514 30.9193 20.0535 31.4476C20.0551 31.8745 20.3446 32.3734 21.1536 32.2126C27.4884 30.0649 32.036 24.0372 32.0083 16.9533C31.9738 8.09508 24.7943 0.942313 15.973 0.976735ZM6.07162 23.8632C6.03674 23.9431 5.91192 23.9675 5.79802 23.9132C5.68189 23.8614 5.61645 23.753 5.65358 23.6729C5.6877 23.5907 5.81277 23.5673 5.92854 23.6218C6.0448 23.6738 6.11136 23.7831 6.07162 23.8632ZM6.86003 24.5641C6.78419 24.6353 6.63506 24.603 6.53355 24.4913C6.42866 24.38 6.40849 24.2304 6.48545 24.1582C6.56379 24.087 6.7083 24.1196 6.81343 24.231C6.91845 24.3437 6.93924 24.4921 6.86003 24.5641ZM7.40263 25.4627C7.30494 25.5314 7.14471 25.468 7.0452 25.3257C6.94681 25.1835 6.94614 25.0125 7.04583 24.9436C7.14476 24.8746 7.30261 24.9357 7.40337 25.0769C7.50152 25.2215 7.50219 25.3925 7.40251 25.4628L7.40263 25.4627ZM8.31815 26.5023C8.23105 26.5996 8.04439 26.5743 7.90736 26.4425C7.76722 26.3137 7.72769 26.1304 7.81516 26.0331C7.90338 25.9355 8.09105 25.9621 8.22908 26.0929C8.3681 26.2214 8.41124 26.406 8.31815 26.5023ZM9.49777 26.8498C9.45958 26.9756 9.28011 27.0334 9.09908 26.9808C8.91817 26.9265 8.79943 26.7798 8.83537 26.6527C8.87244 26.526 9.05265 26.4659 9.23506 26.5224C9.41572 26.5763 9.53484 26.7219 9.49778 26.8499L9.49777 26.8498ZM10.8391 26.994C10.8441 27.1262 10.6912 27.2364 10.5012 27.2397C10.3103 27.2447 10.1553 27.1383 10.1527 27.008C10.1521 26.8745 10.3017 26.7653 10.4928 26.7613C10.6827 26.7568 10.8386 26.8625 10.8391 26.994ZM12.156 26.9381C12.1792 27.0671 12.0479 27.2002 11.8593 27.2363C11.6741 27.2709 11.5021 27.1919 11.478 27.0641C11.4546 26.9319 11.5884 26.7988 11.7734 26.7638C11.9622 26.7301 12.1314 26.807 12.156 26.9381Z" fill="#161614"/>
</g>
<defs>
<clipPath id="clip0">
<rect width="31.946" height="31.3257" fill="white" transform="translate(0 1.03906) rotate(-0.223572)"/>
</clipPath>
</defs>
</svg>
