<svg width="27" height="31" viewBox="0 0 27 31" fill="none" xmlns="http://www.w3.org/2000/svg">
<path d="M26.0357 14.3438C25.3709 13.203 24.4356 12.2884 23.2663 11.5998C22.3925 11.0925 21.4865 10.7705 20.4654 10.6323V7.00728C21.4865 6.57492 22.1201 5.61797 22.1201 4.50155C22.1201 2.97987 20.8965 1.74676 19.3719 1.74676C17.8461 1.74676 16.6011 2.97987 16.6011 4.50155C16.6011 5.61797 17.1982 6.57492 18.2192 7.00728V10.6339C17.4024 10.7516 16.5553 11.0056 15.7818 11.3958C14.2019 10.1991 9.02117 6.27332 5.99056 3.98041C6.06244 3.72197 6.11778 3.4556 6.11778 3.17456C6.11778 1.48914 4.7492 0.123047 3.05858 0.123047C1.36797 0.123047 0 1.48914 0 3.17456C0 4.85977 1.3694 6.22627 3.06002 6.22627C3.63669 6.22627 4.17007 6.05806 4.63035 5.7815L5.26992 6.26537L14.0581 12.5802C13.5935 13.0056 13.1608 13.4895 12.8147 14.0324C12.1132 15.1393 11.6846 16.3571 11.6846 17.6855V17.9627C11.6846 18.8952 11.8623 19.7756 12.1649 20.6026C12.4314 21.3248 12.821 21.9813 13.3036 22.575L10.3869 25.4909C9.96419 25.334 9.50514 25.3018 9.06458 25.3981C8.62402 25.4945 8.2206 25.7153 7.90253 26.0342C7.68231 26.2528 7.50776 26.5127 7.38901 26.799C7.27025 27.0853 7.20964 27.3923 7.21069 27.7021C7.21089 28.332 7.45696 28.924 7.90376 29.3694C8.12275 29.5892 8.38331 29.7635 8.67032 29.8821C8.95734 30.0008 9.2651 30.0614 9.57579 30.0606C9.88657 30.0614 10.1944 30.0007 10.4815 29.8821C10.7686 29.7634 11.0293 29.5892 11.2484 29.3694C11.4685 29.1509 11.643 28.891 11.7618 28.6048C11.8806 28.3187 11.9414 28.0118 11.9407 27.7021C11.9407 27.4583 11.9029 27.2205 11.8319 26.9944L14.8465 23.9875C15.2598 24.2722 15.7062 24.5119 16.1861 24.7186C17.1326 25.1267 18.1773 25.3754 19.3207 25.3754H19.5302C20.7942 25.3754 21.9866 25.0793 23.1074 24.4736C24.2886 23.8336 25.213 22.9583 25.9114 21.8408C26.6134 20.7203 27 19.4823 27 18.1203V18.0523C27 16.7125 26.689 15.4763 26.0357 14.3438ZM22.3523 20.6515C21.534 21.5584 20.5935 22.117 19.5302 22.117H19.355C18.7477 22.117 18.1536 21.9496 17.5721 21.6451C16.9166 21.3099 16.4183 20.8317 16.0105 20.2263C15.589 19.632 15.3603 18.9832 15.3603 18.2953V18.0863C15.3603 17.41 15.4904 16.7687 15.8183 16.163C16.169 15.501 16.6425 14.9861 17.2723 14.5768C17.8906 14.1703 18.551 13.9709 19.2866 13.9709H19.355C20.0219 13.9709 20.6533 14.1021 21.2492 14.4061C21.8563 14.7303 22.3523 15.1733 22.7368 15.7559C23.1103 16.3388 23.3325 16.9675 23.404 17.6523C23.4152 17.7947 23.4209 17.9405 23.4209 18.0798C23.4209 19.0093 23.0648 19.8701 22.3523 20.6515Z" fill="#F8761F"/>
</svg>
