<svg width="34" height="34" viewBox="0 0 34 34" fill="none" xmlns="http://www.w3.org/2000/svg">
<g clip-path="url(#clip0)">
<path d="M19.1781 17C19.1781 22.2806 14.8856 26.5625 9.588 26.5625C8.33056 26.5642 7.0851 26.3182 5.92274 25.8385C4.76037 25.3589 3.70387 24.655 2.81354 23.767C1.92321 22.879 1.2165 21.8244 0.733749 20.6633C0.251002 19.5022 0.00167324 18.2575 0 17C0 11.7173 4.2925 7.43751 9.588 7.43751C10.8456 7.43556 12.0913 7.68136 13.2539 8.16089C14.4165 8.64042 15.4733 9.34428 16.3638 10.2323C17.2544 11.1203 17.9613 12.175 18.4442 13.3362C18.9271 14.4974 19.1765 15.7424 19.1781 17ZM29.6969 17C29.6969 21.9725 27.5506 26.0015 24.9029 26.0015C22.2551 26.0015 20.1089 21.9704 20.1089 17C20.1089 12.0275 22.2551 7.99851 24.9029 7.99851C27.5506 7.99851 29.6969 12.0296 29.6969 17ZM34 17C34 21.454 33.2456 25.0644 32.3128 25.0644C31.382 25.0644 30.6276 21.4519 30.6276 17C30.6276 12.546 31.382 8.93564 32.3149 8.93564C33.2456 8.93564 34 12.546 34 17Z" fill="#3A3A3A"/>
</g>
<defs>
<clipPath id="clip0">
<rect width="34" height="34" fill="white"/>
</clipPath>
</defs>
</svg>
