<svg width="28" height="29" viewBox="0 0 28 29" fill="none" xmlns="http://www.w3.org/2000/svg">
<path d="M25.2656 0.123047L2.73438 0.123047C1.22422 0.123047 0 1.34472 0 2.85173L0 25.3361C0 26.8431 1.22422 28.0648 2.73437 28.0648L25.2656 28.0648C26.7758 28.0648 28 26.8431 28 25.3361L28 2.85173C28 1.34472 26.7758 0.123047 25.2656 0.123047Z" fill="url(#paint0_linear)"/>
<path d="M23.0478 3.75537L17.1328 3.75537C16.4079 3.75537 15.8203 4.34177 15.8203 5.06514L15.8203 14.6701C15.8203 15.3935 16.4079 15.9799 17.1328 15.9799L23.0478 15.9799C23.7727 15.9799 24.3603 15.3935 24.3603 14.6701L24.3603 5.06514C24.3603 4.34177 23.7727 3.75537 23.0478 3.75537Z" fill="white"/>
<path d="M10.8676 3.75537L4.95264 3.75537C4.22776 3.75537 3.64014 4.34177 3.64014 5.06514L3.64014 21.6555C3.64014 22.3789 4.22776 22.9653 4.95264 22.9653L10.8676 22.9653C11.5925 22.9653 12.1801 22.3789 12.1801 21.6555L12.1801 5.06514C12.1801 4.34177 11.5925 3.75537 10.8676 3.75537Z" fill="white"/>
<defs>
<linearGradient id="paint0_linear" x1="14" y1="0.123047" x2="14" y2="28.0648" gradientUnits="userSpaceOnUse">
<stop stop-color="#0091E6"/>
<stop offset="1" stop-color="#0079BF"/>
</linearGradient>
</defs>
</svg>
