<svg width="128" height="128" viewBox="0 0 128 128" fill="none" xmlns="http://www.w3.org/2000/svg">
<rect width="128" height="128" rx="4" fill="#009B69"/>
<path d="M41.0504 55.64C42.5776 55.64 44.0779 55.4008 45.5232 54.94L54.1136 63.5245L63.5214 54.1187L54.935 45.5248C56.5902 40.3525 55.2302 34.6213 51.3726 30.7651C48.6264 28.0181 44.9707 26.5059 41.0891 26.5059C38.9203 26.5059 36.7456 26.9973 34.7944 27.9277C34.5 28.068 34.2939 28.3416 34.2387 28.6624C34.1851 28.9832 34.2883 29.3088 34.5174 29.54L43.5558 38.5805C44.2227 39.2469 44.5907 40.1317 44.5907 41.0709C44.5907 42.0125 44.2222 42.8957 43.5558 43.5621C42.228 44.8939 39.9067 44.8939 38.5766 43.5587L29.535 34.5205C29.3032 34.2888 28.9702 34.1872 28.6584 34.2411C28.3368 34.2963 28.064 34.5024 27.9238 34.7968C25.2683 40.3616 26.4064 47.0256 30.7614 51.3773C33.5091 54.1251 37.163 55.64 41.0504 55.64Z" fill="white"/>
<path d="M86.9538 72.3598C85.4234 72.3598 83.9207 72.6006 82.4743 73.0625L72.9727 63.5601L63.5586 72.9726L73.0629 82.4766C71.4111 87.6473 72.7701 93.3769 76.6253 97.2355C79.3722 99.9825 83.0279 101.495 86.9093 101.495C89.0791 101.495 91.2535 101.002 93.2047 100.072C93.4991 99.9323 93.7052 99.6585 93.7604 99.3377C93.8156 99.0169 93.7108 98.691 93.4818 98.4601L84.4437 89.4177C83.7781 88.7529 83.4103 87.8697 83.4095 86.9305C83.4095 85.9897 83.7773 85.1065 84.4453 84.4393C85.7773 83.1065 88.0935 83.1073 89.4228 84.4401L98.4626 93.4782C98.6935 93.7083 99.0159 93.8107 99.3402 93.7577C99.661 93.7017 99.9349 93.4963 100.075 93.2019C102.73 87.6379 101.593 80.9747 97.2381 76.6222C94.4911 73.8747 90.8381 72.3598 86.9538 72.3598Z" fill="white"/>
<path d="M83.0859 50.9302C83.0859 50.9302 84.6585 52.3075 85.955 51.6641C87.4203 50.9267 91.5486 54.9966 92.8657 55.9489C92.8699 55.9521 92.879 55.9521 92.8945 55.9595L92.1745 56.6827C91.2235 57.6227 91.2243 59.1577 92.1721 60.0993C93.1203 61.0435 94.6451 61.0427 95.5937 60.0993L101.294 54.4059C102.236 53.4593 102.237 51.927 101.293 50.9819C100.352 50.0401 98.8174 50.0401 97.8731 50.9827L96.9238 51.9313C96.1371 50.8478 94.8299 49.0011 94.9958 48.3894C95.691 45.7102 90.2291 39.3817 90.2291 39.3817C76.6643 25.8195 67.6038 26.1278 63.2934 27.6099C61.5633 28.2051 61.8841 28.5822 63.6811 28.8987C76.7585 31.1814 78.3806 38.8934 76.1638 41.8689C75.3113 43.0177 76.5547 44.4046 76.5547 44.4046L77.0222 44.8689L54.9414 66.9457C55.2409 67.1262 55.5318 67.3315 55.7883 67.5889L59.5027 71.2998C59.755 71.5529 59.9611 71.8417 60.1401 72.1409L82.2211 50.0633L83.0859 50.9302Z" fill="white"/>
<path d="M54.302 69.0738C53.487 68.258 52.1001 68.2055 51.2284 68.9626L26.69 90.9618C25.8142 91.718 25.7654 93.0052 26.582 93.8217L33.2657 100.501C34.0828 101.317 35.3676 101.272 36.123 100.401L58.1289 75.8551C58.8817 74.9842 58.834 73.602 58.0166 72.7866L54.302 69.0738Z" fill="white"/>
</svg>
